<?xml version="1.0" encoding="utf-8" standalone="no"?>
<!DOCTYPE svg PUBLIC "-//W3C//DTD SVG 1.1//EN"
  "http://www.w3.org/Graphics/SVG/1.1/DTD/svg11.dtd">
<svg xmlns:xlink="http://www.w3.org/1999/xlink" width="576pt" height="576pt" viewBox="0 0 576 576" xmlns="http://www.w3.org/2000/svg" version="1.1">
 <metadata>
  <rdf:RDF xmlns:dc="http://purl.org/dc/elements/1.1/" xmlns:cc="http://creativecommons.org/ns#" xmlns:rdf="http://www.w3.org/1999/02/22-rdf-syntax-ns#">
   <cc:Work>
    <dc:type rdf:resource="http://purl.org/dc/dcmitype/StillImage"/>
    <dc:date>2025-10-22T22:21:31.764820</dc:date>
    <dc:format>image/svg+xml</dc:format>
    <dc:creator>
     <cc:Agent>
      <dc:title>Matplotlib v3.10.1, https://matplotlib.org/</dc:title>
     </cc:Agent>
    </dc:creator>
   </cc:Work>
  </rdf:RDF>
 </metadata>
 <defs>
  <style type="text/css">*{stroke-linejoin: round; stroke-linecap: butt}</style>
 </defs>
 <g id="figure_1">
  <g id="patch_1">
   <path d="M 0 576 
L 576 576 
L 576 0 
L 0 0 
z
" style="fill: #ffffff"/>
  </g>
  <g id="axes_1">
   <g id="patch_2">
    <path d="M 75.692 262.24 
L 565.2 262.24 
L 565.2 32.4 
L 75.692 32.4 
z
" style="fill: #ffffff"/>
   </g>
   <g id="matplotlib.axis_1">
    <g id="xtick_1">
     <g id="line2d_1">
      <path d="M 103.164035 262.24 
L 103.164035 32.4 
" clip-path="url(#p01d175d9a3)" style="fill: none; stroke-dasharray: 2.96,1.28; stroke-dashoffset: 0; stroke: #b0b0b0; stroke-opacity: 0.6; stroke-width: 0.8"/>
     </g>
     <g id="line2d_2">
      <defs>
       <path id="m24bbc06aa2" d="M 0 0 
L 0 3.5 
" style="stroke: #000000; stroke-width: 0.8"/>
      </defs>
      <g>
       <use xlink:href="#m24bbc06aa2" x="103.164035" y="262.24" style="stroke: #000000; stroke-width: 0.8"/>
      </g>
     </g>
     <g id="text_1">
      <!-- 76750 -->
      <g transform="translate(87.257785 276.838437) scale(0.1 -0.1)">
       <defs>
        <path id="DejaVuSans-37" d="M 525 4666 
L 3525 4666 
L 3525 4397 
L 1831 0 
L 1172 0 
L 2766 4134 
L 525 4134 
L 525 4666 
z
" transform="scale(0.015625)"/>
        <path id="DejaVuSans-36" d="M 2113 2584 
Q 1688 2584 1439 2293 
Q 1191 2003 1191 1497 
Q 1191 994 1439 701 
Q 1688 409 2113 409 
Q 2538 409 2786 701 
Q 3034 994 3034 1497 
Q 3034 2003 2786 2293 
Q 2538 2584 2113 2584 
z
M 3366 4563 
L 3366 3988 
Q 3128 4100 2886 4159 
Q 2644 4219 2406 4219 
Q 1781 4219 1451 3797 
Q 1122 3375 1075 2522 
Q 1259 2794 1537 2939 
Q 1816 3084 2150 3084 
Q 2853 3084 3261 2657 
Q 3669 2231 3669 1497 
Q 3669 778 3244 343 
Q 2819 -91 2113 -91 
Q 1303 -91 875 529 
Q 447 1150 447 2328 
Q 447 3434 972 4092 
Q 1497 4750 2381 4750 
Q 2619 4750 2861 4703 
Q 3103 4656 3366 4563 
z
" transform="scale(0.015625)"/>
        <path id="DejaVuSans-35" d="M 691 4666 
L 3169 4666 
L 3169 4134 
L 1269 4134 
L 1269 2991 
Q 1406 3038 1543 3061 
Q 1681 3084 1819 3084 
Q 2600 3084 3056 2656 
Q 3513 2228 3513 1497 
Q 3513 744 3044 326 
Q 2575 -91 1722 -91 
Q 1428 -91 1123 -41 
Q 819 9 494 109 
L 494 744 
Q 775 591 1075 516 
Q 1375 441 1709 441 
Q 2250 441 2565 725 
Q 2881 1009 2881 1497 
Q 2881 1984 2565 2268 
Q 2250 2553 1709 2553 
Q 1456 2553 1204 2497 
Q 953 2441 691 2322 
L 691 4666 
z
" transform="scale(0.015625)"/>
        <path id="DejaVuSans-30" d="M 2034 4250 
Q 1547 4250 1301 3770 
Q 1056 3291 1056 2328 
Q 1056 1369 1301 889 
Q 1547 409 2034 409 
Q 2525 409 2770 889 
Q 3016 1369 3016 2328 
Q 3016 3291 2770 3770 
Q 2525 4250 2034 4250 
z
M 2034 4750 
Q 2819 4750 3233 4129 
Q 3647 3509 3647 2328 
Q 3647 1150 3233 529 
Q 2819 -91 2034 -91 
Q 1250 -91 836 529 
Q 422 1150 422 2328 
Q 422 3509 836 4129 
Q 1250 4750 2034 4750 
z
" transform="scale(0.015625)"/>
       </defs>
       <use xlink:href="#DejaVuSans-37"/>
       <use xlink:href="#DejaVuSans-36" transform="translate(63.623047 0)"/>
       <use xlink:href="#DejaVuSans-37" transform="translate(127.246094 0)"/>
       <use xlink:href="#DejaVuSans-35" transform="translate(190.869141 0)"/>
       <use xlink:href="#DejaVuSans-30" transform="translate(254.492188 0)"/>
      </g>
     </g>
    </g>
    <g id="xtick_2">
     <g id="line2d_3">
      <path d="M 160.957188 262.24 
L 160.957188 32.4 
" clip-path="url(#p01d175d9a3)" style="fill: none; stroke-dasharray: 2.96,1.28; stroke-dashoffset: 0; stroke: #b0b0b0; stroke-opacity: 0.6; stroke-width: 0.8"/>
     </g>
     <g id="line2d_4">
      <g>
       <use xlink:href="#m24bbc06aa2" x="160.957188" y="262.24" style="stroke: #000000; stroke-width: 0.8"/>
      </g>
     </g>
     <g id="text_2">
      <!-- 77000 -->
      <g transform="translate(145.050938 276.838437) scale(0.1 -0.1)">
       <use xlink:href="#DejaVuSans-37"/>
       <use xlink:href="#DejaVuSans-37" transform="translate(63.623047 0)"/>
       <use xlink:href="#DejaVuSans-30" transform="translate(127.246094 0)"/>
       <use xlink:href="#DejaVuSans-30" transform="translate(190.869141 0)"/>
       <use xlink:href="#DejaVuSans-30" transform="translate(254.492188 0)"/>
      </g>
     </g>
    </g>
    <g id="xtick_3">
     <g id="line2d_5">
      <path d="M 218.75034 262.24 
L 218.75034 32.4 
" clip-path="url(#p01d175d9a3)" style="fill: none; stroke-dasharray: 2.96,1.28; stroke-dashoffset: 0; stroke: #b0b0b0; stroke-opacity: 0.6; stroke-width: 0.8"/>
     </g>
     <g id="line2d_6">
      <g>
       <use xlink:href="#m24bbc06aa2" x="218.75034" y="262.24" style="stroke: #000000; stroke-width: 0.8"/>
      </g>
     </g>
     <g id="text_3">
      <!-- 77250 -->
      <g transform="translate(202.84409 276.838437) scale(0.1 -0.1)">
       <defs>
        <path id="DejaVuSans-32" d="M 1228 531 
L 3431 531 
L 3431 0 
L 469 0 
L 469 531 
Q 828 903 1448 1529 
Q 2069 2156 2228 2338 
Q 2531 2678 2651 2914 
Q 2772 3150 2772 3378 
Q 2772 3750 2511 3984 
Q 2250 4219 1831 4219 
Q 1534 4219 1204 4116 
Q 875 4013 500 3803 
L 500 4441 
Q 881 4594 1212 4672 
Q 1544 4750 1819 4750 
Q 2544 4750 2975 4387 
Q 3406 4025 3406 3419 
Q 3406 3131 3298 2873 
Q 3191 2616 2906 2266 
Q 2828 2175 2409 1742 
Q 1991 1309 1228 531 
z
" transform="scale(0.015625)"/>
       </defs>
       <use xlink:href="#DejaVuSans-37"/>
       <use xlink:href="#DejaVuSans-37" transform="translate(63.623047 0)"/>
       <use xlink:href="#DejaVuSans-32" transform="translate(127.246094 0)"/>
       <use xlink:href="#DejaVuSans-35" transform="translate(190.869141 0)"/>
       <use xlink:href="#DejaVuSans-30" transform="translate(254.492188 0)"/>
      </g>
     </g>
    </g>
    <g id="xtick_4">
     <g id="line2d_7">
      <path d="M 276.543492 262.24 
L 276.543492 32.4 
" clip-path="url(#p01d175d9a3)" style="fill: none; stroke-dasharray: 2.96,1.28; stroke-dashoffset: 0; stroke: #b0b0b0; stroke-opacity: 0.6; stroke-width: 0.8"/>
     </g>
     <g id="line2d_8">
      <g>
       <use xlink:href="#m24bbc06aa2" x="276.543492" y="262.24" style="stroke: #000000; stroke-width: 0.8"/>
      </g>
     </g>
     <g id="text_4">
      <!-- 77500 -->
      <g transform="translate(260.637242 276.838437) scale(0.1 -0.1)">
       <use xlink:href="#DejaVuSans-37"/>
       <use xlink:href="#DejaVuSans-37" transform="translate(63.623047 0)"/>
       <use xlink:href="#DejaVuSans-35" transform="translate(127.246094 0)"/>
       <use xlink:href="#DejaVuSans-30" transform="translate(190.869141 0)"/>
       <use xlink:href="#DejaVuSans-30" transform="translate(254.492188 0)"/>
      </g>
     </g>
    </g>
    <g id="xtick_5">
     <g id="line2d_9">
      <path d="M 334.336645 262.24 
L 334.336645 32.4 
" clip-path="url(#p01d175d9a3)" style="fill: none; stroke-dasharray: 2.96,1.28; stroke-dashoffset: 0; stroke: #b0b0b0; stroke-opacity: 0.6; stroke-width: 0.8"/>
     </g>
     <g id="line2d_10">
      <g>
       <use xlink:href="#m24bbc06aa2" x="334.336645" y="262.24" style="stroke: #000000; stroke-width: 0.8"/>
      </g>
     </g>
     <g id="text_5">
      <!-- 77750 -->
      <g transform="translate(318.430395 276.838437) scale(0.1 -0.1)">
       <use xlink:href="#DejaVuSans-37"/>
       <use xlink:href="#DejaVuSans-37" transform="translate(63.623047 0)"/>
       <use xlink:href="#DejaVuSans-37" transform="translate(127.246094 0)"/>
       <use xlink:href="#DejaVuSans-35" transform="translate(190.869141 0)"/>
       <use xlink:href="#DejaVuSans-30" transform="translate(254.492188 0)"/>
      </g>
     </g>
    </g>
    <g id="xtick_6">
     <g id="line2d_11">
      <path d="M 392.129797 262.24 
L 392.129797 32.4 
" clip-path="url(#p01d175d9a3)" style="fill: none; stroke-dasharray: 2.96,1.28; stroke-dashoffset: 0; stroke: #b0b0b0; stroke-opacity: 0.6; stroke-width: 0.8"/>
     </g>
     <g id="line2d_12">
      <g>
       <use xlink:href="#m24bbc06aa2" x="392.129797" y="262.24" style="stroke: #000000; stroke-width: 0.8"/>
      </g>
     </g>
     <g id="text_6">
      <!-- 78000 -->
      <g transform="translate(376.223547 276.838437) scale(0.1 -0.1)">
       <defs>
        <path id="DejaVuSans-38" d="M 2034 2216 
Q 1584 2216 1326 1975 
Q 1069 1734 1069 1313 
Q 1069 891 1326 650 
Q 1584 409 2034 409 
Q 2484 409 2743 651 
Q 3003 894 3003 1313 
Q 3003 1734 2745 1975 
Q 2488 2216 2034 2216 
z
M 1403 2484 
Q 997 2584 770 2862 
Q 544 3141 544 3541 
Q 544 4100 942 4425 
Q 1341 4750 2034 4750 
Q 2731 4750 3128 4425 
Q 3525 4100 3525 3541 
Q 3525 3141 3298 2862 
Q 3072 2584 2669 2484 
Q 3125 2378 3379 2068 
Q 3634 1759 3634 1313 
Q 3634 634 3220 271 
Q 2806 -91 2034 -91 
Q 1263 -91 848 271 
Q 434 634 434 1313 
Q 434 1759 690 2068 
Q 947 2378 1403 2484 
z
M 1172 3481 
Q 1172 3119 1398 2916 
Q 1625 2713 2034 2713 
Q 2441 2713 2670 2916 
Q 2900 3119 2900 3481 
Q 2900 3844 2670 4047 
Q 2441 4250 2034 4250 
Q 1625 4250 1398 4047 
Q 1172 3844 1172 3481 
z
" transform="scale(0.015625)"/>
       </defs>
       <use xlink:href="#DejaVuSans-37"/>
       <use xlink:href="#DejaVuSans-38" transform="translate(63.623047 0)"/>
       <use xlink:href="#DejaVuSans-30" transform="translate(127.246094 0)"/>
       <use xlink:href="#DejaVuSans-30" transform="translate(190.869141 0)"/>
       <use xlink:href="#DejaVuSans-30" transform="translate(254.492188 0)"/>
      </g>
     </g>
    </g>
    <g id="xtick_7">
     <g id="line2d_13">
      <path d="M 449.922949 262.24 
L 449.922949 32.4 
" clip-path="url(#p01d175d9a3)" style="fill: none; stroke-dasharray: 2.96,1.28; stroke-dashoffset: 0; stroke: #b0b0b0; stroke-opacity: 0.6; stroke-width: 0.8"/>
     </g>
     <g id="line2d_14">
      <g>
       <use xlink:href="#m24bbc06aa2" x="449.922949" y="262.24" style="stroke: #000000; stroke-width: 0.8"/>
      </g>
     </g>
     <g id="text_7">
      <!-- 78250 -->
      <g transform="translate(434.016699 276.838437) scale(0.1 -0.1)">
       <use xlink:href="#DejaVuSans-37"/>
       <use xlink:href="#DejaVuSans-38" transform="translate(63.623047 0)"/>
       <use xlink:href="#DejaVuSans-32" transform="translate(127.246094 0)"/>
       <use xlink:href="#DejaVuSans-35" transform="translate(190.869141 0)"/>
       <use xlink:href="#DejaVuSans-30" transform="translate(254.492188 0)"/>
      </g>
     </g>
    </g>
    <g id="xtick_8">
     <g id="line2d_15">
      <path d="M 507.716101 262.24 
L 507.716101 32.4 
" clip-path="url(#p01d175d9a3)" style="fill: none; stroke-dasharray: 2.96,1.28; stroke-dashoffset: 0; stroke: #b0b0b0; stroke-opacity: 0.6; stroke-width: 0.8"/>
     </g>
     <g id="line2d_16">
      <g>
       <use xlink:href="#m24bbc06aa2" x="507.716101" y="262.24" style="stroke: #000000; stroke-width: 0.8"/>
      </g>
     </g>
     <g id="text_8">
      <!-- 78500 -->
      <g transform="translate(491.809851 276.838437) scale(0.1 -0.1)">
       <use xlink:href="#DejaVuSans-37"/>
       <use xlink:href="#DejaVuSans-38" transform="translate(63.623047 0)"/>
       <use xlink:href="#DejaVuSans-35" transform="translate(127.246094 0)"/>
       <use xlink:href="#DejaVuSans-30" transform="translate(190.869141 0)"/>
       <use xlink:href="#DejaVuSans-30" transform="translate(254.492188 0)"/>
      </g>
     </g>
    </g>
    <g id="text_9">
     <!-- Period (s) -->
     <g transform="translate(296.762406 290.516562) scale(0.1 -0.1)">
      <defs>
       <path id="DejaVuSans-50" d="M 1259 4147 
L 1259 2394 
L 2053 2394 
Q 2494 2394 2734 2622 
Q 2975 2850 2975 3272 
Q 2975 3691 2734 3919 
Q 2494 4147 2053 4147 
L 1259 4147 
z
M 628 4666 
L 2053 4666 
Q 2838 4666 3239 4311 
Q 3641 3956 3641 3272 
Q 3641 2581 3239 2228 
Q 2838 1875 2053 1875 
L 1259 1875 
L 1259 0 
L 628 0 
L 628 4666 
z
" transform="scale(0.015625)"/>
       <path id="DejaVuSans-65" d="M 3597 1894 
L 3597 1613 
L 953 1613 
Q 991 1019 1311 708 
Q 1631 397 2203 397 
Q 2534 397 2845 478 
Q 3156 559 3463 722 
L 3463 178 
Q 3153 47 2828 -22 
Q 2503 -91 2169 -91 
Q 1331 -91 842 396 
Q 353 884 353 1716 
Q 353 2575 817 3079 
Q 1281 3584 2069 3584 
Q 2775 3584 3186 3129 
Q 3597 2675 3597 1894 
z
M 3022 2063 
Q 3016 2534 2758 2815 
Q 2500 3097 2075 3097 
Q 1594 3097 1305 2825 
Q 1016 2553 972 2059 
L 3022 2063 
z
" transform="scale(0.015625)"/>
       <path id="DejaVuSans-72" d="M 2631 2963 
Q 2534 3019 2420 3045 
Q 2306 3072 2169 3072 
Q 1681 3072 1420 2755 
Q 1159 2438 1159 1844 
L 1159 0 
L 581 0 
L 581 3500 
L 1159 3500 
L 1159 2956 
Q 1341 3275 1631 3429 
Q 1922 3584 2338 3584 
Q 2397 3584 2469 3576 
Q 2541 3569 2628 3553 
L 2631 2963 
z
" transform="scale(0.015625)"/>
       <path id="DejaVuSans-69" d="M 603 3500 
L 1178 3500 
L 1178 0 
L 603 0 
L 603 3500 
z
M 603 4863 
L 1178 4863 
L 1178 4134 
L 603 4134 
L 603 4863 
z
" transform="scale(0.015625)"/>
       <path id="DejaVuSans-6f" d="M 1959 3097 
Q 1497 3097 1228 2736 
Q 959 2375 959 1747 
Q 959 1119 1226 758 
Q 1494 397 1959 397 
Q 2419 397 2687 759 
Q 2956 1122 2956 1747 
Q 2956 2369 2687 2733 
Q 2419 3097 1959 3097 
z
M 1959 3584 
Q 2709 3584 3137 3096 
Q 3566 2609 3566 1747 
Q 3566 888 3137 398 
Q 2709 -91 1959 -91 
Q 1206 -91 779 398 
Q 353 888 353 1747 
Q 353 2609 779 3096 
Q 1206 3584 1959 3584 
z
" transform="scale(0.015625)"/>
       <path id="DejaVuSans-64" d="M 2906 2969 
L 2906 4863 
L 3481 4863 
L 3481 0 
L 2906 0 
L 2906 525 
Q 2725 213 2448 61 
Q 2172 -91 1784 -91 
Q 1150 -91 751 415 
Q 353 922 353 1747 
Q 353 2572 751 3078 
Q 1150 3584 1784 3584 
Q 2172 3584 2448 3432 
Q 2725 3281 2906 2969 
z
M 947 1747 
Q 947 1113 1208 752 
Q 1469 391 1925 391 
Q 2381 391 2643 752 
Q 2906 1113 2906 1747 
Q 2906 2381 2643 2742 
Q 2381 3103 1925 3103 
Q 1469 3103 1208 2742 
Q 947 2381 947 1747 
z
" transform="scale(0.015625)"/>
       <path id="DejaVuSans-20" transform="scale(0.015625)"/>
       <path id="DejaVuSans-28" d="M 1984 4856 
Q 1566 4138 1362 3434 
Q 1159 2731 1159 2009 
Q 1159 1288 1364 580 
Q 1569 -128 1984 -844 
L 1484 -844 
Q 1016 -109 783 600 
Q 550 1309 550 2009 
Q 550 2706 781 3412 
Q 1013 4119 1484 4856 
L 1984 4856 
z
" transform="scale(0.015625)"/>
       <path id="DejaVuSans-73" d="M 2834 3397 
L 2834 2853 
Q 2591 2978 2328 3040 
Q 2066 3103 1784 3103 
Q 1356 3103 1142 2972 
Q 928 2841 928 2578 
Q 928 2378 1081 2264 
Q 1234 2150 1697 2047 
L 1894 2003 
Q 2506 1872 2764 1633 
Q 3022 1394 3022 966 
Q 3022 478 2636 193 
Q 2250 -91 1575 -91 
Q 1294 -91 989 -36 
Q 684 19 347 128 
L 347 722 
Q 666 556 975 473 
Q 1284 391 1588 391 
Q 1994 391 2212 530 
Q 2431 669 2431 922 
Q 2431 1156 2273 1281 
Q 2116 1406 1581 1522 
L 1381 1569 
Q 847 1681 609 1914 
Q 372 2147 372 2553 
Q 372 3047 722 3315 
Q 1072 3584 1716 3584 
Q 2034 3584 2315 3537 
Q 2597 3491 2834 3397 
z
" transform="scale(0.015625)"/>
       <path id="DejaVuSans-29" d="M 513 4856 
L 1013 4856 
Q 1481 4119 1714 3412 
Q 1947 2706 1947 2009 
Q 1947 1309 1714 600 
Q 1481 -109 1013 -844 
L 513 -844 
Q 928 -128 1133 580 
Q 1338 1288 1338 2009 
Q 1338 2731 1133 3434 
Q 928 4138 513 4856 
z
" transform="scale(0.015625)"/>
      </defs>
      <use xlink:href="#DejaVuSans-50"/>
      <use xlink:href="#DejaVuSans-65" transform="translate(56.677734 0)"/>
      <use xlink:href="#DejaVuSans-72" transform="translate(118.201172 0)"/>
      <use xlink:href="#DejaVuSans-69" transform="translate(159.314453 0)"/>
      <use xlink:href="#DejaVuSans-6f" transform="translate(187.097656 0)"/>
      <use xlink:href="#DejaVuSans-64" transform="translate(248.279297 0)"/>
      <use xlink:href="#DejaVuSans-20" transform="translate(311.755859 0)"/>
      <use xlink:href="#DejaVuSans-28" transform="translate(343.542969 0)"/>
      <use xlink:href="#DejaVuSans-73" transform="translate(382.556641 0)"/>
      <use xlink:href="#DejaVuSans-29" transform="translate(434.65625 0)"/>
     </g>
    </g>
   </g>
   <g id="matplotlib.axis_2">
    <g id="ytick_1">
     <g id="line2d_17">
      <path d="M 75.692 253.440592 
L 565.2 253.440592 
" clip-path="url(#p01d175d9a3)" style="fill: none; stroke-dasharray: 2.96,1.28; stroke-dashoffset: 0; stroke: #b0b0b0; stroke-opacity: 0.6; stroke-width: 0.8"/>
     </g>
     <g id="line2d_18">
      <defs>
       <path id="ma3c08a1961" d="M 0 0 
L -3.5 0 
" style="stroke: #000000; stroke-width: 0.8"/>
      </defs>
      <g>
       <use xlink:href="#ma3c08a1961" x="75.692" y="253.440592" style="stroke: #000000; stroke-width: 0.8"/>
      </g>
     </g>
     <g id="text_10">
      <!-- 0 -->
      <g transform="translate(62.3295 257.239811) scale(0.1 -0.1)">
       <use xlink:href="#DejaVuSans-30"/>
      </g>
     </g>
    </g>
    <g id="ytick_2">
     <g id="line2d_19">
      <path d="M 75.692 218.481344 
L 565.2 218.481344 
" clip-path="url(#p01d175d9a3)" style="fill: none; stroke-dasharray: 2.96,1.28; stroke-dashoffset: 0; stroke: #b0b0b0; stroke-opacity: 0.6; stroke-width: 0.8"/>
     </g>
     <g id="line2d_20">
      <g>
       <use xlink:href="#ma3c08a1961" x="75.692" y="218.481344" style="stroke: #000000; stroke-width: 0.8"/>
      </g>
     </g>
     <g id="text_11">
      <!-- 100000 -->
      <g transform="translate(30.517 222.280563) scale(0.1 -0.1)">
       <defs>
        <path id="DejaVuSans-31" d="M 794 531 
L 1825 531 
L 1825 4091 
L 703 3866 
L 703 4441 
L 1819 4666 
L 2450 4666 
L 2450 531 
L 3481 531 
L 3481 0 
L 794 0 
L 794 531 
z
" transform="scale(0.015625)"/>
       </defs>
       <use xlink:href="#DejaVuSans-31"/>
       <use xlink:href="#DejaVuSans-30" transform="translate(63.623047 0)"/>
       <use xlink:href="#DejaVuSans-30" transform="translate(127.246094 0)"/>
       <use xlink:href="#DejaVuSans-30" transform="translate(190.869141 0)"/>
       <use xlink:href="#DejaVuSans-30" transform="translate(254.492188 0)"/>
       <use xlink:href="#DejaVuSans-30" transform="translate(318.115234 0)"/>
      </g>
     </g>
    </g>
    <g id="ytick_3">
     <g id="line2d_21">
      <path d="M 75.692 183.522095 
L 565.2 183.522095 
" clip-path="url(#p01d175d9a3)" style="fill: none; stroke-dasharray: 2.96,1.28; stroke-dashoffset: 0; stroke: #b0b0b0; stroke-opacity: 0.6; stroke-width: 0.8"/>
     </g>
     <g id="line2d_22">
      <g>
       <use xlink:href="#ma3c08a1961" x="75.692" y="183.522095" style="stroke: #000000; stroke-width: 0.8"/>
      </g>
     </g>
     <g id="text_12">
      <!-- 200000 -->
      <g transform="translate(30.517 187.321314) scale(0.1 -0.1)">
       <use xlink:href="#DejaVuSans-32"/>
       <use xlink:href="#DejaVuSans-30" transform="translate(63.623047 0)"/>
       <use xlink:href="#DejaVuSans-30" transform="translate(127.246094 0)"/>
       <use xlink:href="#DejaVuSans-30" transform="translate(190.869141 0)"/>
       <use xlink:href="#DejaVuSans-30" transform="translate(254.492188 0)"/>
       <use xlink:href="#DejaVuSans-30" transform="translate(318.115234 0)"/>
      </g>
     </g>
    </g>
    <g id="ytick_4">
     <g id="line2d_23">
      <path d="M 75.692 148.562847 
L 565.2 148.562847 
" clip-path="url(#p01d175d9a3)" style="fill: none; stroke-dasharray: 2.96,1.28; stroke-dashoffset: 0; stroke: #b0b0b0; stroke-opacity: 0.6; stroke-width: 0.8"/>
     </g>
     <g id="line2d_24">
      <g>
       <use xlink:href="#ma3c08a1961" x="75.692" y="148.562847" style="stroke: #000000; stroke-width: 0.8"/>
      </g>
     </g>
     <g id="text_13">
      <!-- 300000 -->
      <g transform="translate(30.517 152.362065) scale(0.1 -0.1)">
       <defs>
        <path id="DejaVuSans-33" d="M 2597 2516 
Q 3050 2419 3304 2112 
Q 3559 1806 3559 1356 
Q 3559 666 3084 287 
Q 2609 -91 1734 -91 
Q 1441 -91 1130 -33 
Q 819 25 488 141 
L 488 750 
Q 750 597 1062 519 
Q 1375 441 1716 441 
Q 2309 441 2620 675 
Q 2931 909 2931 1356 
Q 2931 1769 2642 2001 
Q 2353 2234 1838 2234 
L 1294 2234 
L 1294 2753 
L 1863 2753 
Q 2328 2753 2575 2939 
Q 2822 3125 2822 3475 
Q 2822 3834 2567 4026 
Q 2313 4219 1838 4219 
Q 1578 4219 1281 4162 
Q 984 4106 628 3988 
L 628 4550 
Q 988 4650 1302 4700 
Q 1616 4750 1894 4750 
Q 2613 4750 3031 4423 
Q 3450 4097 3450 3541 
Q 3450 3153 3228 2886 
Q 3006 2619 2597 2516 
z
" transform="scale(0.015625)"/>
       </defs>
       <use xlink:href="#DejaVuSans-33"/>
       <use xlink:href="#DejaVuSans-30" transform="translate(63.623047 0)"/>
       <use xlink:href="#DejaVuSans-30" transform="translate(127.246094 0)"/>
       <use xlink:href="#DejaVuSans-30" transform="translate(190.869141 0)"/>
       <use xlink:href="#DejaVuSans-30" transform="translate(254.492188 0)"/>
       <use xlink:href="#DejaVuSans-30" transform="translate(318.115234 0)"/>
      </g>
     </g>
    </g>
    <g id="ytick_5">
     <g id="line2d_25">
      <path d="M 75.692 113.603598 
L 565.2 113.603598 
" clip-path="url(#p01d175d9a3)" style="fill: none; stroke-dasharray: 2.96,1.28; stroke-dashoffset: 0; stroke: #b0b0b0; stroke-opacity: 0.6; stroke-width: 0.8"/>
     </g>
     <g id="line2d_26">
      <g>
       <use xlink:href="#ma3c08a1961" x="75.692" y="113.603598" style="stroke: #000000; stroke-width: 0.8"/>
      </g>
     </g>
     <g id="text_14">
      <!-- 400000 -->
      <g transform="translate(30.517 117.402817) scale(0.1 -0.1)">
       <defs>
        <path id="DejaVuSans-34" d="M 2419 4116 
L 825 1625 
L 2419 1625 
L 2419 4116 
z
M 2253 4666 
L 3047 4666 
L 3047 1625 
L 3713 1625 
L 3713 1100 
L 3047 1100 
L 3047 0 
L 2419 0 
L 2419 1100 
L 313 1100 
L 313 1709 
L 2253 4666 
z
" transform="scale(0.015625)"/>
       </defs>
       <use xlink:href="#DejaVuSans-34"/>
       <use xlink:href="#DejaVuSans-30" transform="translate(63.623047 0)"/>
       <use xlink:href="#DejaVuSans-30" transform="translate(127.246094 0)"/>
       <use xlink:href="#DejaVuSans-30" transform="translate(190.869141 0)"/>
       <use xlink:href="#DejaVuSans-30" transform="translate(254.492188 0)"/>
       <use xlink:href="#DejaVuSans-30" transform="translate(318.115234 0)"/>
      </g>
     </g>
    </g>
    <g id="ytick_6">
     <g id="line2d_27">
      <path d="M 75.692 78.644349 
L 565.2 78.644349 
" clip-path="url(#p01d175d9a3)" style="fill: none; stroke-dasharray: 2.96,1.28; stroke-dashoffset: 0; stroke: #b0b0b0; stroke-opacity: 0.6; stroke-width: 0.8"/>
     </g>
     <g id="line2d_28">
      <g>
       <use xlink:href="#ma3c08a1961" x="75.692" y="78.644349" style="stroke: #000000; stroke-width: 0.8"/>
      </g>
     </g>
     <g id="text_15">
      <!-- 500000 -->
      <g transform="translate(30.517 82.443568) scale(0.1 -0.1)">
       <use xlink:href="#DejaVuSans-35"/>
       <use xlink:href="#DejaVuSans-30" transform="translate(63.623047 0)"/>
       <use xlink:href="#DejaVuSans-30" transform="translate(127.246094 0)"/>
       <use xlink:href="#DejaVuSans-30" transform="translate(190.869141 0)"/>
       <use xlink:href="#DejaVuSans-30" transform="translate(254.492188 0)"/>
       <use xlink:href="#DejaVuSans-30" transform="translate(318.115234 0)"/>
      </g>
     </g>
    </g>
    <g id="ytick_7">
     <g id="line2d_29">
      <path d="M 75.692 43.685101 
L 565.2 43.685101 
" clip-path="url(#p01d175d9a3)" style="fill: none; stroke-dasharray: 2.96,1.28; stroke-dashoffset: 0; stroke: #b0b0b0; stroke-opacity: 0.6; stroke-width: 0.8"/>
     </g>
     <g id="line2d_30">
      <g>
       <use xlink:href="#ma3c08a1961" x="75.692" y="43.685101" style="stroke: #000000; stroke-width: 0.8"/>
      </g>
     </g>
     <g id="text_16">
      <!-- 600000 -->
      <g transform="translate(30.517 47.484319) scale(0.1 -0.1)">
       <use xlink:href="#DejaVuSans-36"/>
       <use xlink:href="#DejaVuSans-30" transform="translate(63.623047 0)"/>
       <use xlink:href="#DejaVuSans-30" transform="translate(127.246094 0)"/>
       <use xlink:href="#DejaVuSans-30" transform="translate(190.869141 0)"/>
       <use xlink:href="#DejaVuSans-30" transform="translate(254.492188 0)"/>
       <use xlink:href="#DejaVuSans-30" transform="translate(318.115234 0)"/>
      </g>
     </g>
    </g>
    <g id="text_17">
     <!-- $\chi^2$ -->
     <g transform="translate(24.417 152.87) rotate(-90) scale(0.1 -0.1)">
      <defs>
       <path id="DejaVuSans-Oblique-3c7" d="M 1922 -781 
L 1691 416 
L 394 -1334 
L -284 -1334 
L 1553 1141 
L 1269 2613 
Q 1194 3006 713 3006 
L 559 3006 
L 653 3500 
L 872 3494 
Q 1675 3472 1775 2950 
L 2006 1753 
L 3303 3503 
L 3981 3503 
L 2144 1028 
L 2428 -444 
Q 2503 -838 2984 -838 
L 3138 -838 
L 3044 -1331 
L 2825 -1325 
Q 2022 -1303 1922 -781 
z
" transform="scale(0.015625)"/>
      </defs>
      <use xlink:href="#DejaVuSans-Oblique-3c7" transform="translate(0 0.765625)"/>
      <use xlink:href="#DejaVuSans-32" transform="translate(63.652396 39.046875) scale(0.7)"/>
     </g>
    </g>
   </g>
   <g id="line2d_31">
    <path d="M 97.942364 235.346586 
L 99.098227 228.858497 
L 100.25409 233.235984 
L 101.409953 242.813979 
L 102.565816 235.758281 
L 103.721679 238.896835 
L 104.877542 241.210476 
L 106.033405 229.379296 
L 107.189268 227.991525 
L 108.345131 232.574039 
L 109.500994 239.189263 
L 110.656857 243.044522 
L 111.81272 239.153991 
L 112.968583 230.800227 
L 114.124446 226.759531 
L 115.280309 235.770456 
L 116.436172 240.684935 
L 117.592035 234.108659 
L 118.747898 236.93402 
L 119.903762 242.379569 
L 121.059625 233.485427 
L 122.215488 235.507155 
L 123.371351 232.504298 
L 124.527214 238.804104 
L 125.683077 235.771835 
L 126.83894 238.368429 
L 127.994803 235.109994 
L 129.150666 239.313322 
L 130.306529 240.464664 
L 131.462392 236.235482 
L 132.618255 224.826601 
L 133.774118 234.748724 
L 134.929981 241.796094 
L 136.085844 241.777776 
L 137.241707 240.17788 
L 138.39757 230.923579 
L 139.553433 235.556215 
L 140.709296 230.560927 
L 141.865159 235.498249 
L 143.021022 238.552129 
L 144.176885 245.587339 
L 145.332749 238.611946 
L 146.488612 236.515144 
L 147.644475 220.408846 
L 148.800338 240.251499 
L 149.956201 243.01221 
L 151.112064 245.311369 
L 152.267927 235.609335 
L 153.42379 236.967447 
L 154.579653 236.503522 
L 155.735516 237.05678 
L 156.891379 238.634758 
L 158.047242 241.084205 
L 159.203105 242.65456 
L 160.358968 241.408083 
L 161.514831 243.114768 
L 162.670694 232.322233 
L 163.826557 243.765241 
L 164.98242 241.691398 
L 166.138283 241.560051 
L 167.294146 234.618988 
L 168.450009 244.546376 
L 169.605872 244.366684 
L 170.761736 241.671064 
L 171.917599 237.790515 
L 173.073462 238.498272 
L 174.229325 238.557703 
L 175.385188 246.10746 
L 176.541051 247.527536 
L 177.696914 238.128877 
L 178.852777 241.687229 
L 180.00864 238.433056 
L 181.164503 239.826456 
L 182.320366 238.959113 
L 183.476229 246.676186 
L 184.632092 245.756369 
L 185.787955 240.013802 
L 186.943818 238.054575 
L 188.099681 236.581179 
L 189.255544 240.624967 
L 190.411407 248.237982 
L 191.56727 248.751841 
L 192.723133 233.566084 
L 193.878996 237.872681 
L 195.03486 240.232852 
L 196.190723 244.007245 
L 197.346586 238.934404 
L 198.502449 244.944127 
L 199.658312 240.636033 
L 200.814175 242.997861 
L 201.970038 238.792493 
L 203.125901 240.459418 
L 204.281764 240.591413 
L 205.437627 246.278196 
L 206.59349 246.75309 
L 207.749353 232.184837 
L 208.905216 241.462846 
L 210.061079 244.693793 
L 211.216942 243.648313 
L 212.372805 234.891656 
L 213.528668 242.027002 
L 214.684531 240.249438 
L 215.840394 245.646668 
L 216.996257 240.680693 
L 218.15212 239.826109 
L 219.307983 233.582678 
L 220.463847 242.444519 
L 221.61971 241.939867 
L 222.775573 235.857477 
L 223.931436 242.12935 
L 225.087299 243.898446 
L 226.243162 238.979268 
L 227.399025 230.748716 
L 228.554888 238.559772 
L 229.710751 243.643774 
L 230.866614 247.300216 
L 232.022477 239.686549 
L 233.17834 233.198899 
L 234.334203 226.072594 
L 235.490066 244.371172 
L 236.645929 242.156338 
L 237.801792 234.94343 
L 238.957655 244.328957 
L 240.113518 242.951657 
L 241.269381 237.76777 
L 242.425244 233.325909 
L 243.581107 239.871163 
L 244.73697 247.282903 
L 245.892834 245.254971 
L 247.048697 236.189406 
L 248.20456 232.531141 
L 249.360423 237.826719 
L 250.516286 245.019465 
L 251.672149 242.229447 
L 252.828012 236.655113 
L 253.983875 244.751348 
L 255.139738 241.857658 
L 256.295601 241.458316 
L 257.451464 237.301963 
L 258.607327 243.027218 
L 259.76319 245.528943 
L 260.919053 244.849767 
L 262.074916 236.0894 
L 263.230779 239.753907 
L 265.542505 245.014204 
L 266.698368 244.041788 
L 267.854231 237.258069 
L 269.010094 246.881614 
L 270.165957 245.372043 
L 271.321821 246.829704 
L 272.477684 238.168496 
L 273.633547 242.865795 
L 274.78941 236.557926 
L 275.945273 249.678971 
L 277.101136 238.082608 
L 278.256999 239.649215 
L 279.412862 242.635759 
L 280.568725 241.497593 
L 281.724588 242.568073 
L 282.880451 243.024594 
L 284.036314 244.642963 
L 285.192177 246.780969 
L 286.34804 245.285365 
L 287.503903 233.687368 
L 288.659766 235.461585 
L 290.971492 246.863765 
L 292.127355 238.621225 
L 293.283218 238.884569 
L 294.439081 239.431699 
L 295.594945 238.548755 
L 296.750808 240.414215 
L 297.906671 243.297808 
L 299.062534 243.578357 
L 300.218397 239.044692 
L 301.37426 240.110284 
L 302.530123 232.512121 
L 303.685986 233.786118 
L 304.841849 233.90412 
L 305.997712 238.259457 
L 307.153575 238.033283 
L 308.309438 235.474125 
L 309.465301 236.297422 
L 310.621164 233.634635 
L 311.777027 242.030022 
L 312.93289 241.804174 
L 314.088753 234.354066 
L 315.244616 158.012501 
L 316.400479 244.464966 
L 317.556342 233.123693 
L 318.712205 234.401215 
L 319.868068 236.143575 
L 321.023932 231.466717 
L 322.179795 237.415459 
L 323.335658 232.017398 
L 324.491521 233.017735 
L 325.647384 231.619015 
L 326.803247 243.026909 
L 327.95911 233.050194 
L 329.114973 42.847273 
L 330.270836 212.042395 
L 331.426699 241.992829 
L 332.582562 230.912227 
L 333.738425 234.13742 
L 334.894288 231.818105 
L 336.050151 225.225385 
L 337.206014 237.391203 
L 338.361877 230.475849 
L 339.51774 229.448347 
L 340.673603 232.062119 
L 341.829466 245.407638 
L 342.985329 217.215054 
L 344.141192 228.918267 
L 345.297055 224.450058 
L 346.452919 241.889142 
L 347.608782 238.032215 
L 348.764645 234.720115 
L 349.920508 228.281032 
L 351.076371 232.016777 
L 352.232234 239.934055 
L 353.388097 231.681305 
L 354.54396 236.030186 
L 355.699823 235.495625 
L 356.855686 239.246918 
L 358.011549 237.397794 
L 359.167412 233.712807 
L 360.323275 233.168427 
L 361.479138 242.77657 
L 362.635001 242.978075 
L 363.790864 235.755372 
L 364.946727 238.391549 
L 366.10259 239.610992 
L 367.258453 245.654205 
L 368.414316 241.559233 
L 369.570179 242.410538 
L 370.726043 240.03273 
L 371.881906 247.441952 
L 373.037769 242.217625 
L 374.193632 238.847705 
L 375.349495 239.959642 
L 376.505358 245.066272 
L 377.661221 247.099256 
L 378.817084 241.673079 
L 379.972947 242.606469 
L 381.12881 244.606215 
L 382.284673 248.959588 
L 383.440536 242.654731 
L 384.596399 242.715875 
L 385.752262 245.901052 
L 386.908125 246.723409 
L 388.063988 247.943587 
L 389.219851 243.8792 
L 390.375714 244.701656 
L 391.531577 247.40136 
L 392.68744 248.078442 
L 393.843303 244.64474 
L 394.999166 247.592434 
L 397.310893 247.356954 
L 398.466756 246.45998 
L 399.622619 246.325572 
L 401.934345 248.261551 
L 403.090208 248.72517 
L 404.246071 247.631337 
L 405.401934 248.925472 
L 406.557797 247.491962 
L 407.71366 249.601912 
L 408.869523 248.362141 
L 410.025386 249.733033 
L 411.181249 245.733896 
L 412.337112 247.677484 
L 413.492975 250.434763 
L 414.648838 247.72212 
L 415.804701 247.215436 
L 416.960564 247.786222 
L 418.116427 249.749579 
L 420.428153 248.671935 
L 421.584017 247.334645 
L 422.73988 248.46853 
L 423.895743 251.792727 
L 425.051606 249.344558 
L 426.207469 247.697128 
L 427.363332 248.150437 
L 428.519195 249.537943 
L 429.675058 248.401848 
L 430.830921 246.366307 
L 431.986784 247.784114 
L 433.142647 250.140441 
L 434.29851 249.247283 
L 435.454373 248.525829 
L 436.610236 245.276922 
L 437.766099 248.50491 
L 438.921962 249.994439 
L 440.077825 248.268552 
L 441.233688 248.455111 
L 442.389551 245.424376 
L 443.545414 248.97956 
L 444.701277 248.996093 
L 445.85714 244.538562 
L 448.168867 249.423692 
L 449.32473 248.606629 
L 450.480593 249.49445 
L 451.636456 244.974563 
L 452.792319 244.550523 
L 453.948182 249.207908 
L 455.104045 248.576892 
L 456.259908 244.53154 
L 457.415771 243.673309 
L 458.571634 247.422304 
L 459.727497 249.789407 
L 460.88336 245.682513 
L 462.039223 245.836256 
L 463.195086 248.466247 
L 464.350949 248.602299 
L 465.506812 249.909735 
L 466.662675 243.19299 
L 467.818538 243.670977 
L 468.974401 249.513395 
L 470.130264 246.736584 
L 471.286128 245.498202 
L 472.441991 246.335516 
L 473.597854 247.992469 
L 474.753717 250.782968 
L 477.065443 243.259499 
L 478.221306 249.295106 
L 479.377169 248.083312 
L 480.533032 249.852192 
L 481.688895 247.287158 
L 482.844758 243.540065 
L 484.000621 249.81424 
L 485.156484 247.581129 
L 486.312347 243.830452 
L 487.46821 248.198628 
L 488.624073 248.405753 
L 489.779936 247.933061 
L 490.935799 248.088904 
L 492.091662 247.392371 
L 493.247525 249.121751 
L 495.559251 249.949384 
L 497.870978 245.549605 
L 499.026841 250.654695 
L 500.182704 247.576972 
L 501.338567 249.226686 
L 502.49443 250.380991 
L 503.650293 247.595803 
L 504.806156 249.45634 
L 505.962019 248.682881 
L 507.117882 248.139421 
L 508.273745 251.023881 
L 510.585471 249.294486 
L 511.741334 248.855772 
L 512.897197 247.097587 
L 514.05306 250.246693 
L 515.208923 250.240856 
L 516.364786 248.13975 
L 517.520649 250.686684 
L 518.676512 248.597958 
L 519.832375 250.698259 
L 520.988238 249.039069 
L 522.144102 248.358041 
L 523.299965 249.602635 
L 524.455828 247.668348 
L 525.611691 246.662467 
L 526.767554 250.658696 
L 527.923417 249.830809 
L 529.07928 250.226829 
L 530.235143 250.455352 
L 531.391006 246.410039 
L 532.546869 250.953287 
L 533.702732 249.59809 
L 536.014458 250.266008 
L 537.170321 248.765192 
L 538.326184 250.136683 
L 539.482047 246.228103 
L 540.63791 248.548202 
L 541.793773 249.025844 
L 542.949636 250.417437 
L 542.949636 250.417437 
" clip-path="url(#p01d175d9a3)" style="fill: none; stroke: #808080; stroke-opacity: 0.4; stroke-width: 1.5; stroke-linecap: square"/>
   </g>
   <g id="line2d_32">
    <path d="M 119.903762 236.813007 
L 129.150666 236.41906 
L 134.929981 236.372509 
L 139.553433 236.516041 
L 143.021022 236.801925 
L 147.644475 237.441211 
L 154.579653 238.718678 
L 162.670694 240.169982 
L 167.294146 240.760158 
L 171.917599 241.127589 
L 177.696914 241.334222 
L 188.099681 241.371764 
L 205.437627 241.321948 
L 211.216942 241.009433 
L 215.840394 240.578725 
L 227.399025 239.300717 
L 232.022477 239.132819 
L 236.645929 239.176367 
L 241.269381 239.458347 
L 247.048697 240.076575 
L 263.230779 242.058817 
L 269.010094 242.447853 
L 273.633547 242.490257 
L 278.256999 242.278262 
L 284.036314 241.801084 
L 289.815629 241.090139 
L 293.283218 240.54987 
L 295.594945 240.001223 
L 297.906671 239.190414 
L 309.465301 234.186578 
L 310.621164 233.437662 
L 311.777027 232.517366 
L 314.088753 230.206383 
L 318.712205 225.008653 
L 321.023932 222.901229 
L 322.179795 222.06568 
L 323.335658 221.386476 
L 324.491521 220.865856 
L 325.647384 220.503522 
L 326.803247 220.296835 
L 327.95911 220.240075 
L 329.114973 220.324297 
L 330.270836 220.536898 
L 332.582562 221.291125 
L 334.894288 222.421972 
L 337.206014 223.942622 
L 339.51774 225.914066 
L 341.829466 228.282834 
L 345.297055 231.895269 
L 346.452919 232.892989 
L 347.608782 233.717932 
L 348.764645 234.362125 
L 349.920508 234.844235 
L 352.232234 235.491244 
L 355.699823 236.351758 
L 359.167412 237.552594 
L 367.258453 240.626904 
L 371.881906 242.141941 
L 376.505358 243.409228 
L 381.12881 244.409722 
L 391.531577 246.269985 
L 397.310893 247.13894 
L 403.090208 247.752468 
L 411.181249 248.368077 
L 416.960564 248.595316 
L 423.895743 248.625603 
L 431.986784 248.446441 
L 438.921962 248.051531 
L 451.636456 247.226011 
L 458.571634 246.932834 
L 464.350949 246.919217 
L 477.065443 247.22 
L 484.000621 247.550023 
L 496.715115 248.43378 
L 505.962019 249.064724 
L 514.05306 249.382374 
L 520.988238 249.453375 
L 520.988238 249.453375 
" clip-path="url(#p01d175d9a3)" style="fill: none; stroke: #ff0000; stroke-width: 1.4; stroke-linecap: square"/>
   </g>
   <g id="line2d_33">
    <path d="M 327.317194 262.24 
L 327.317194 32.4 
" clip-path="url(#p01d175d9a3)" style="fill: none; stroke-dasharray: 4.44,1.92; stroke-dashoffset: 0; stroke: #0000ff; stroke-width: 1.2"/>
   </g>
   <g id="patch_3">
    <path d="M 75.692 262.24 
L 75.692 32.4 
" style="fill: none; stroke: #000000; stroke-width: 0.8; stroke-linejoin: miter; stroke-linecap: square"/>
   </g>
   <g id="patch_4">
    <path d="M 565.2 262.24 
L 565.2 32.4 
" style="fill: none; stroke: #000000; stroke-width: 0.8; stroke-linejoin: miter; stroke-linecap: square"/>
   </g>
   <g id="patch_5">
    <path d="M 75.692 262.24 
L 565.2 262.24 
" style="fill: none; stroke: #000000; stroke-width: 0.8; stroke-linejoin: miter; stroke-linecap: square"/>
   </g>
   <g id="patch_6">
    <path d="M 75.692 32.4 
L 565.2 32.4 
" style="fill: none; stroke: #000000; stroke-width: 0.8; stroke-linejoin: miter; stroke-linecap: square"/>
   </g>
   <g id="legend_1">
    <g id="patch_7">
     <path d="M 81.292 76.4625 
L 215.212 76.4625 
Q 216.812 76.4625 216.812 74.8625 
L 216.812 38 
Q 216.812 36.4 215.212 36.4 
L 81.292 36.4 
Q 79.692 36.4 79.692 38 
L 79.692 74.8625 
Q 79.692 76.4625 81.292 76.4625 
z
" style="fill: #ffffff; opacity: 0.8; stroke: #cccccc; stroke-linejoin: miter"/>
    </g>
    <g id="line2d_34">
     <path d="M 82.892 44.08 
L 90.892 44.08 
L 98.892 44.08 
" style="fill: none; stroke: #808080; stroke-opacity: 0.4; stroke-width: 1.5; stroke-linecap: square"/>
    </g>
    <g id="text_18">
     <!-- Raw $\chi^2$ -->
     <g transform="translate(105.292 46.88) scale(0.08 -0.08)">
      <defs>
       <path id="DejaVuSans-52" d="M 2841 2188 
Q 3044 2119 3236 1894 
Q 3428 1669 3622 1275 
L 4263 0 
L 3584 0 
L 2988 1197 
Q 2756 1666 2539 1819 
Q 2322 1972 1947 1972 
L 1259 1972 
L 1259 0 
L 628 0 
L 628 4666 
L 2053 4666 
Q 2853 4666 3247 4331 
Q 3641 3997 3641 3322 
Q 3641 2881 3436 2590 
Q 3231 2300 2841 2188 
z
M 1259 4147 
L 1259 2491 
L 2053 2491 
Q 2509 2491 2742 2702 
Q 2975 2913 2975 3322 
Q 2975 3731 2742 3939 
Q 2509 4147 2053 4147 
L 1259 4147 
z
" transform="scale(0.015625)"/>
       <path id="DejaVuSans-61" d="M 2194 1759 
Q 1497 1759 1228 1600 
Q 959 1441 959 1056 
Q 959 750 1161 570 
Q 1363 391 1709 391 
Q 2188 391 2477 730 
Q 2766 1069 2766 1631 
L 2766 1759 
L 2194 1759 
z
M 3341 1997 
L 3341 0 
L 2766 0 
L 2766 531 
Q 2569 213 2275 61 
Q 1981 -91 1556 -91 
Q 1019 -91 701 211 
Q 384 513 384 1019 
Q 384 1609 779 1909 
Q 1175 2209 1959 2209 
L 2766 2209 
L 2766 2266 
Q 2766 2663 2505 2880 
Q 2244 3097 1772 3097 
Q 1472 3097 1187 3025 
Q 903 2953 641 2809 
L 641 3341 
Q 956 3463 1253 3523 
Q 1550 3584 1831 3584 
Q 2591 3584 2966 3190 
Q 3341 2797 3341 1997 
z
" transform="scale(0.015625)"/>
       <path id="DejaVuSans-77" d="M 269 3500 
L 844 3500 
L 1563 769 
L 2278 3500 
L 2956 3500 
L 3675 769 
L 4391 3500 
L 4966 3500 
L 4050 0 
L 3372 0 
L 2619 2869 
L 1863 0 
L 1184 0 
L 269 3500 
z
" transform="scale(0.015625)"/>
      </defs>
      <use xlink:href="#DejaVuSans-52" transform="translate(0 0.765625)"/>
      <use xlink:href="#DejaVuSans-61" transform="translate(69.482422 0.765625)"/>
      <use xlink:href="#DejaVuSans-77" transform="translate(130.761719 0.765625)"/>
      <use xlink:href="#DejaVuSans-20" transform="translate(212.548828 0.765625)"/>
      <use xlink:href="#DejaVuSans-Oblique-3c7" transform="translate(244.335938 0.765625)"/>
      <use xlink:href="#DejaVuSans-32" transform="translate(307.988333 39.046875) scale(0.7)"/>
     </g>
    </g>
    <g id="line2d_35">
     <path d="M 82.892 57.04 
L 90.892 57.04 
L 98.892 57.04 
" style="fill: none; stroke: #ff0000; stroke-width: 1.4; stroke-linecap: square"/>
    </g>
    <g id="text_19">
     <!-- Smoothed $\chi^2$ (valid region) -->
     <g transform="translate(105.292 59.84) scale(0.08 -0.08)">
      <defs>
       <path id="DejaVuSans-53" d="M 3425 4513 
L 3425 3897 
Q 3066 4069 2747 4153 
Q 2428 4238 2131 4238 
Q 1616 4238 1336 4038 
Q 1056 3838 1056 3469 
Q 1056 3159 1242 3001 
Q 1428 2844 1947 2747 
L 2328 2669 
Q 3034 2534 3370 2195 
Q 3706 1856 3706 1288 
Q 3706 609 3251 259 
Q 2797 -91 1919 -91 
Q 1588 -91 1214 -16 
Q 841 59 441 206 
L 441 856 
Q 825 641 1194 531 
Q 1563 422 1919 422 
Q 2459 422 2753 634 
Q 3047 847 3047 1241 
Q 3047 1584 2836 1778 
Q 2625 1972 2144 2069 
L 1759 2144 
Q 1053 2284 737 2584 
Q 422 2884 422 3419 
Q 422 4038 858 4394 
Q 1294 4750 2059 4750 
Q 2388 4750 2728 4690 
Q 3069 4631 3425 4513 
z
" transform="scale(0.015625)"/>
       <path id="DejaVuSans-6d" d="M 3328 2828 
Q 3544 3216 3844 3400 
Q 4144 3584 4550 3584 
Q 5097 3584 5394 3201 
Q 5691 2819 5691 2113 
L 5691 0 
L 5113 0 
L 5113 2094 
Q 5113 2597 4934 2840 
Q 4756 3084 4391 3084 
Q 3944 3084 3684 2787 
Q 3425 2491 3425 1978 
L 3425 0 
L 2847 0 
L 2847 2094 
Q 2847 2600 2669 2842 
Q 2491 3084 2119 3084 
Q 1678 3084 1418 2786 
Q 1159 2488 1159 1978 
L 1159 0 
L 581 0 
L 581 3500 
L 1159 3500 
L 1159 2956 
Q 1356 3278 1631 3431 
Q 1906 3584 2284 3584 
Q 2666 3584 2933 3390 
Q 3200 3197 3328 2828 
z
" transform="scale(0.015625)"/>
       <path id="DejaVuSans-74" d="M 1172 4494 
L 1172 3500 
L 2356 3500 
L 2356 3053 
L 1172 3053 
L 1172 1153 
Q 1172 725 1289 603 
Q 1406 481 1766 481 
L 2356 481 
L 2356 0 
L 1766 0 
Q 1100 0 847 248 
Q 594 497 594 1153 
L 594 3053 
L 172 3053 
L 172 3500 
L 594 3500 
L 594 4494 
L 1172 4494 
z
" transform="scale(0.015625)"/>
       <path id="DejaVuSans-68" d="M 3513 2113 
L 3513 0 
L 2938 0 
L 2938 2094 
Q 2938 2591 2744 2837 
Q 2550 3084 2163 3084 
Q 1697 3084 1428 2787 
Q 1159 2491 1159 1978 
L 1159 0 
L 581 0 
L 581 4863 
L 1159 4863 
L 1159 2956 
Q 1366 3272 1645 3428 
Q 1925 3584 2291 3584 
Q 2894 3584 3203 3211 
Q 3513 2838 3513 2113 
z
" transform="scale(0.015625)"/>
       <path id="DejaVuSans-76" d="M 191 3500 
L 800 3500 
L 1894 563 
L 2988 3500 
L 3597 3500 
L 2284 0 
L 1503 0 
L 191 3500 
z
" transform="scale(0.015625)"/>
       <path id="DejaVuSans-6c" d="M 603 4863 
L 1178 4863 
L 1178 0 
L 603 0 
L 603 4863 
z
" transform="scale(0.015625)"/>
       <path id="DejaVuSans-67" d="M 2906 1791 
Q 2906 2416 2648 2759 
Q 2391 3103 1925 3103 
Q 1463 3103 1205 2759 
Q 947 2416 947 1791 
Q 947 1169 1205 825 
Q 1463 481 1925 481 
Q 2391 481 2648 825 
Q 2906 1169 2906 1791 
z
M 3481 434 
Q 3481 -459 3084 -895 
Q 2688 -1331 1869 -1331 
Q 1566 -1331 1297 -1286 
Q 1028 -1241 775 -1147 
L 775 -588 
Q 1028 -725 1275 -790 
Q 1522 -856 1778 -856 
Q 2344 -856 2625 -561 
Q 2906 -266 2906 331 
L 2906 616 
Q 2728 306 2450 153 
Q 2172 0 1784 0 
Q 1141 0 747 490 
Q 353 981 353 1791 
Q 353 2603 747 3093 
Q 1141 3584 1784 3584 
Q 2172 3584 2450 3431 
Q 2728 3278 2906 2969 
L 2906 3500 
L 3481 3500 
L 3481 434 
z
" transform="scale(0.015625)"/>
       <path id="DejaVuSans-6e" d="M 3513 2113 
L 3513 0 
L 2938 0 
L 2938 2094 
Q 2938 2591 2744 2837 
Q 2550 3084 2163 3084 
Q 1697 3084 1428 2787 
Q 1159 2491 1159 1978 
L 1159 0 
L 581 0 
L 581 3500 
L 1159 3500 
L 1159 2956 
Q 1366 3272 1645 3428 
Q 1925 3584 2291 3584 
Q 2894 3584 3203 3211 
Q 3513 2838 3513 2113 
z
" transform="scale(0.015625)"/>
      </defs>
      <use xlink:href="#DejaVuSans-53" transform="translate(0 0.765625)"/>
      <use xlink:href="#DejaVuSans-6d" transform="translate(63.476562 0.765625)"/>
      <use xlink:href="#DejaVuSans-6f" transform="translate(160.888672 0.765625)"/>
      <use xlink:href="#DejaVuSans-6f" transform="translate(222.070312 0.765625)"/>
      <use xlink:href="#DejaVuSans-74" transform="translate(283.251953 0.765625)"/>
      <use xlink:href="#DejaVuSans-68" transform="translate(322.460938 0.765625)"/>
      <use xlink:href="#DejaVuSans-65" transform="translate(385.839844 0.765625)"/>
      <use xlink:href="#DejaVuSans-64" transform="translate(447.363281 0.765625)"/>
      <use xlink:href="#DejaVuSans-20" transform="translate(510.839844 0.765625)"/>
      <use xlink:href="#DejaVuSans-Oblique-3c7" transform="translate(542.626953 0.765625)"/>
      <use xlink:href="#DejaVuSans-32" transform="translate(606.279349 39.046875) scale(0.7)"/>
      <use xlink:href="#DejaVuSans-20" transform="translate(653.549857 0.765625)"/>
      <use xlink:href="#DejaVuSans-28" transform="translate(685.336966 0.765625)"/>
      <use xlink:href="#DejaVuSans-76" transform="translate(724.350638 0.765625)"/>
      <use xlink:href="#DejaVuSans-61" transform="translate(783.530326 0.765625)"/>
      <use xlink:href="#DejaVuSans-6c" transform="translate(844.809622 0.765625)"/>
      <use xlink:href="#DejaVuSans-69" transform="translate(872.592826 0.765625)"/>
      <use xlink:href="#DejaVuSans-64" transform="translate(900.376029 0.765625)"/>
      <use xlink:href="#DejaVuSans-20" transform="translate(963.852591 0.765625)"/>
      <use xlink:href="#DejaVuSans-72" transform="translate(995.639701 0.765625)"/>
      <use xlink:href="#DejaVuSans-65" transform="translate(1036.752982 0.765625)"/>
      <use xlink:href="#DejaVuSans-67" transform="translate(1098.276419 0.765625)"/>
      <use xlink:href="#DejaVuSans-69" transform="translate(1161.752982 0.765625)"/>
      <use xlink:href="#DejaVuSans-6f" transform="translate(1189.536185 0.765625)"/>
      <use xlink:href="#DejaVuSans-6e" transform="translate(1250.717826 0.765625)"/>
      <use xlink:href="#DejaVuSans-29" transform="translate(1314.096732 0.765625)"/>
     </g>
    </g>
    <g id="line2d_36">
     <path d="M 82.892 68.79875 
L 90.892 68.79875 
L 98.892 68.79875 
" style="fill: none; stroke-dasharray: 4.44,1.92; stroke-dashoffset: 0; stroke: #0000ff; stroke-width: 1.2"/>
    </g>
    <g id="text_20">
     <!-- Best P = 77719.64 -->
     <g transform="translate(105.292 71.59875) scale(0.08 -0.08)">
      <defs>
       <path id="DejaVuSans-42" d="M 1259 2228 
L 1259 519 
L 2272 519 
Q 2781 519 3026 730 
Q 3272 941 3272 1375 
Q 3272 1813 3026 2020 
Q 2781 2228 2272 2228 
L 1259 2228 
z
M 1259 4147 
L 1259 2741 
L 2194 2741 
Q 2656 2741 2882 2914 
Q 3109 3088 3109 3444 
Q 3109 3797 2882 3972 
Q 2656 4147 2194 4147 
L 1259 4147 
z
M 628 4666 
L 2241 4666 
Q 2963 4666 3353 4366 
Q 3744 4066 3744 3513 
Q 3744 3084 3544 2831 
Q 3344 2578 2956 2516 
Q 3422 2416 3680 2098 
Q 3938 1781 3938 1306 
Q 3938 681 3513 340 
Q 3088 0 2303 0 
L 628 0 
L 628 4666 
z
" transform="scale(0.015625)"/>
       <path id="DejaVuSans-3d" d="M 678 2906 
L 4684 2906 
L 4684 2381 
L 678 2381 
L 678 2906 
z
M 678 1631 
L 4684 1631 
L 4684 1100 
L 678 1100 
L 678 1631 
z
" transform="scale(0.015625)"/>
       <path id="DejaVuSans-39" d="M 703 97 
L 703 672 
Q 941 559 1184 500 
Q 1428 441 1663 441 
Q 2288 441 2617 861 
Q 2947 1281 2994 2138 
Q 2813 1869 2534 1725 
Q 2256 1581 1919 1581 
Q 1219 1581 811 2004 
Q 403 2428 403 3163 
Q 403 3881 828 4315 
Q 1253 4750 1959 4750 
Q 2769 4750 3195 4129 
Q 3622 3509 3622 2328 
Q 3622 1225 3098 567 
Q 2575 -91 1691 -91 
Q 1453 -91 1209 -44 
Q 966 3 703 97 
z
M 1959 2075 
Q 2384 2075 2632 2365 
Q 2881 2656 2881 3163 
Q 2881 3666 2632 3958 
Q 2384 4250 1959 4250 
Q 1534 4250 1286 3958 
Q 1038 3666 1038 3163 
Q 1038 2656 1286 2365 
Q 1534 2075 1959 2075 
z
" transform="scale(0.015625)"/>
       <path id="DejaVuSans-2e" d="M 684 794 
L 1344 794 
L 1344 0 
L 684 0 
L 684 794 
z
" transform="scale(0.015625)"/>
      </defs>
      <use xlink:href="#DejaVuSans-42"/>
      <use xlink:href="#DejaVuSans-65" transform="translate(68.603516 0)"/>
      <use xlink:href="#DejaVuSans-73" transform="translate(130.126953 0)"/>
      <use xlink:href="#DejaVuSans-74" transform="translate(182.226562 0)"/>
      <use xlink:href="#DejaVuSans-20" transform="translate(221.435547 0)"/>
      <use xlink:href="#DejaVuSans-50" transform="translate(253.222656 0)"/>
      <use xlink:href="#DejaVuSans-20" transform="translate(313.525391 0)"/>
      <use xlink:href="#DejaVuSans-3d" transform="translate(345.3125 0)"/>
      <use xlink:href="#DejaVuSans-20" transform="translate(429.101562 0)"/>
      <use xlink:href="#DejaVuSans-37" transform="translate(460.888672 0)"/>
      <use xlink:href="#DejaVuSans-37" transform="translate(524.511719 0)"/>
      <use xlink:href="#DejaVuSans-37" transform="translate(588.134766 0)"/>
      <use xlink:href="#DejaVuSans-31" transform="translate(651.757812 0)"/>
      <use xlink:href="#DejaVuSans-39" transform="translate(715.380859 0)"/>
      <use xlink:href="#DejaVuSans-2e" transform="translate(779.003906 0)"/>
      <use xlink:href="#DejaVuSans-36" transform="translate(810.791016 0)"/>
      <use xlink:href="#DejaVuSans-34" transform="translate(874.414062 0)"/>
     </g>
    </g>
   </g>
  </g>
  <g id="axes_2">
   <g id="patch_8">
    <path d="M 75.692 534.04 
L 565.2 534.04 
L 565.2 304.2 
L 75.692 304.2 
z
" style="fill: #ffffff"/>
   </g>
   <g id="matplotlib.axis_3">
    <g id="xtick_9">
     <g id="line2d_37">
      <path d="M 97.942364 534.04 
L 97.942364 304.2 
" clip-path="url(#p943b2d602c)" style="fill: none; stroke-dasharray: 2.96,1.28; stroke-dashoffset: 0; stroke: #b0b0b0; stroke-opacity: 0.6; stroke-width: 0.8"/>
     </g>
     <g id="line2d_38">
      <g>
       <use xlink:href="#m24bbc06aa2" x="97.942364" y="534.04" style="stroke: #000000; stroke-width: 0.8"/>
      </g>
     </g>
     <g id="text_21">
      <!-- 0.0 -->
      <g transform="translate(89.990801 548.638438) scale(0.1 -0.1)">
       <use xlink:href="#DejaVuSans-30"/>
       <use xlink:href="#DejaVuSans-2e" transform="translate(63.623047 0)"/>
       <use xlink:href="#DejaVuSans-30" transform="translate(95.410156 0)"/>
      </g>
     </g>
    </g>
    <g id="xtick_10">
     <g id="line2d_39">
      <path d="M 187.842823 534.04 
L 187.842823 304.2 
" clip-path="url(#p943b2d602c)" style="fill: none; stroke-dasharray: 2.96,1.28; stroke-dashoffset: 0; stroke: #b0b0b0; stroke-opacity: 0.6; stroke-width: 0.8"/>
     </g>
     <g id="line2d_40">
      <g>
       <use xlink:href="#m24bbc06aa2" x="187.842823" y="534.04" style="stroke: #000000; stroke-width: 0.8"/>
      </g>
     </g>
     <g id="text_22">
      <!-- 0.2 -->
      <g transform="translate(179.89126 548.638438) scale(0.1 -0.1)">
       <use xlink:href="#DejaVuSans-30"/>
       <use xlink:href="#DejaVuSans-2e" transform="translate(63.623047 0)"/>
       <use xlink:href="#DejaVuSans-32" transform="translate(95.410156 0)"/>
      </g>
     </g>
    </g>
    <g id="xtick_11">
     <g id="line2d_41">
      <path d="M 277.743282 534.04 
L 277.743282 304.2 
" clip-path="url(#p943b2d602c)" style="fill: none; stroke-dasharray: 2.96,1.28; stroke-dashoffset: 0; stroke: #b0b0b0; stroke-opacity: 0.6; stroke-width: 0.8"/>
     </g>
     <g id="line2d_42">
      <g>
       <use xlink:href="#m24bbc06aa2" x="277.743282" y="534.04" style="stroke: #000000; stroke-width: 0.8"/>
      </g>
     </g>
     <g id="text_23">
      <!-- 0.4 -->
      <g transform="translate(269.791719 548.638438) scale(0.1 -0.1)">
       <use xlink:href="#DejaVuSans-30"/>
       <use xlink:href="#DejaVuSans-2e" transform="translate(63.623047 0)"/>
       <use xlink:href="#DejaVuSans-34" transform="translate(95.410156 0)"/>
      </g>
     </g>
    </g>
    <g id="xtick_12">
     <g id="line2d_43">
      <path d="M 367.643741 534.04 
L 367.643741 304.2 
" clip-path="url(#p943b2d602c)" style="fill: none; stroke-dasharray: 2.96,1.28; stroke-dashoffset: 0; stroke: #b0b0b0; stroke-opacity: 0.6; stroke-width: 0.8"/>
     </g>
     <g id="line2d_44">
      <g>
       <use xlink:href="#m24bbc06aa2" x="367.643741" y="534.04" style="stroke: #000000; stroke-width: 0.8"/>
      </g>
     </g>
     <g id="text_24">
      <!-- 0.6 -->
      <g transform="translate(359.692179 548.638438) scale(0.1 -0.1)">
       <use xlink:href="#DejaVuSans-30"/>
       <use xlink:href="#DejaVuSans-2e" transform="translate(63.623047 0)"/>
       <use xlink:href="#DejaVuSans-36" transform="translate(95.410156 0)"/>
      </g>
     </g>
    </g>
    <g id="xtick_13">
     <g id="line2d_45">
      <path d="M 457.5442 534.04 
L 457.5442 304.2 
" clip-path="url(#p943b2d602c)" style="fill: none; stroke-dasharray: 2.96,1.28; stroke-dashoffset: 0; stroke: #b0b0b0; stroke-opacity: 0.6; stroke-width: 0.8"/>
     </g>
     <g id="line2d_46">
      <g>
       <use xlink:href="#m24bbc06aa2" x="457.5442" y="534.04" style="stroke: #000000; stroke-width: 0.8"/>
      </g>
     </g>
     <g id="text_25">
      <!-- 0.8 -->
      <g transform="translate(449.592638 548.638438) scale(0.1 -0.1)">
       <use xlink:href="#DejaVuSans-30"/>
       <use xlink:href="#DejaVuSans-2e" transform="translate(63.623047 0)"/>
       <use xlink:href="#DejaVuSans-38" transform="translate(95.410156 0)"/>
      </g>
     </g>
    </g>
    <g id="xtick_14">
     <g id="line2d_47">
      <path d="M 547.444659 534.04 
L 547.444659 304.2 
" clip-path="url(#p943b2d602c)" style="fill: none; stroke-dasharray: 2.96,1.28; stroke-dashoffset: 0; stroke: #b0b0b0; stroke-opacity: 0.6; stroke-width: 0.8"/>
     </g>
     <g id="line2d_48">
      <g>
       <use xlink:href="#m24bbc06aa2" x="547.444659" y="534.04" style="stroke: #000000; stroke-width: 0.8"/>
      </g>
     </g>
     <g id="text_26">
      <!-- 1.0 -->
      <g transform="translate(539.493097 548.638438) scale(0.1 -0.1)">
       <use xlink:href="#DejaVuSans-31"/>
       <use xlink:href="#DejaVuSans-2e" transform="translate(63.623047 0)"/>
       <use xlink:href="#DejaVuSans-30" transform="translate(95.410156 0)"/>
      </g>
     </g>
    </g>
    <g id="text_27">
     <!-- Phase -->
     <g transform="translate(305.517094 562.316562) scale(0.1 -0.1)">
      <use xlink:href="#DejaVuSans-50"/>
      <use xlink:href="#DejaVuSans-68" transform="translate(60.302734 0)"/>
      <use xlink:href="#DejaVuSans-61" transform="translate(123.681641 0)"/>
      <use xlink:href="#DejaVuSans-73" transform="translate(184.960938 0)"/>
      <use xlink:href="#DejaVuSans-65" transform="translate(237.060547 0)"/>
     </g>
    </g>
   </g>
   <g id="matplotlib.axis_4">
    <g id="ytick_8">
     <g id="line2d_49">
      <path d="M 75.692 511.357341 
L 565.2 511.357341 
" clip-path="url(#p943b2d602c)" style="fill: none; stroke-dasharray: 2.96,1.28; stroke-dashoffset: 0; stroke: #b0b0b0; stroke-opacity: 0.6; stroke-width: 0.8"/>
     </g>
     <g id="line2d_50">
      <g>
       <use xlink:href="#ma3c08a1961" x="75.692" y="511.357341" style="stroke: #000000; stroke-width: 0.8"/>
      </g>
     </g>
     <g id="text_28">
      <!-- 0.6 -->
      <g transform="translate(52.788875 515.156559) scale(0.1 -0.1)">
       <use xlink:href="#DejaVuSans-30"/>
       <use xlink:href="#DejaVuSans-2e" transform="translate(63.623047 0)"/>
       <use xlink:href="#DejaVuSans-36" transform="translate(95.410156 0)"/>
      </g>
     </g>
    </g>
    <g id="ytick_9">
     <g id="line2d_51">
      <path d="M 75.692 480.523337 
L 565.2 480.523337 
" clip-path="url(#p943b2d602c)" style="fill: none; stroke-dasharray: 2.96,1.28; stroke-dashoffset: 0; stroke: #b0b0b0; stroke-opacity: 0.6; stroke-width: 0.8"/>
     </g>
     <g id="line2d_52">
      <g>
       <use xlink:href="#ma3c08a1961" x="75.692" y="480.523337" style="stroke: #000000; stroke-width: 0.8"/>
      </g>
     </g>
     <g id="text_29">
      <!-- 0.7 -->
      <g transform="translate(52.788875 484.322556) scale(0.1 -0.1)">
       <use xlink:href="#DejaVuSans-30"/>
       <use xlink:href="#DejaVuSans-2e" transform="translate(63.623047 0)"/>
       <use xlink:href="#DejaVuSans-37" transform="translate(95.410156 0)"/>
      </g>
     </g>
    </g>
    <g id="ytick_10">
     <g id="line2d_53">
      <path d="M 75.692 449.689334 
L 565.2 449.689334 
" clip-path="url(#p943b2d602c)" style="fill: none; stroke-dasharray: 2.96,1.28; stroke-dashoffset: 0; stroke: #b0b0b0; stroke-opacity: 0.6; stroke-width: 0.8"/>
     </g>
     <g id="line2d_54">
      <g>
       <use xlink:href="#ma3c08a1961" x="75.692" y="449.689334" style="stroke: #000000; stroke-width: 0.8"/>
      </g>
     </g>
     <g id="text_30">
      <!-- 0.8 -->
      <g transform="translate(52.788875 453.488553) scale(0.1 -0.1)">
       <use xlink:href="#DejaVuSans-30"/>
       <use xlink:href="#DejaVuSans-2e" transform="translate(63.623047 0)"/>
       <use xlink:href="#DejaVuSans-38" transform="translate(95.410156 0)"/>
      </g>
     </g>
    </g>
    <g id="ytick_11">
     <g id="line2d_55">
      <path d="M 75.692 418.85533 
L 565.2 418.85533 
" clip-path="url(#p943b2d602c)" style="fill: none; stroke-dasharray: 2.96,1.28; stroke-dashoffset: 0; stroke: #b0b0b0; stroke-opacity: 0.6; stroke-width: 0.8"/>
     </g>
     <g id="line2d_56">
      <g>
       <use xlink:href="#ma3c08a1961" x="75.692" y="418.85533" style="stroke: #000000; stroke-width: 0.8"/>
      </g>
     </g>
     <g id="text_31">
      <!-- 0.9 -->
      <g transform="translate(52.788875 422.654549) scale(0.1 -0.1)">
       <use xlink:href="#DejaVuSans-30"/>
       <use xlink:href="#DejaVuSans-2e" transform="translate(63.623047 0)"/>
       <use xlink:href="#DejaVuSans-39" transform="translate(95.410156 0)"/>
      </g>
     </g>
    </g>
    <g id="ytick_12">
     <g id="line2d_57">
      <path d="M 75.692 388.021327 
L 565.2 388.021327 
" clip-path="url(#p943b2d602c)" style="fill: none; stroke-dasharray: 2.96,1.28; stroke-dashoffset: 0; stroke: #b0b0b0; stroke-opacity: 0.6; stroke-width: 0.8"/>
     </g>
     <g id="line2d_58">
      <g>
       <use xlink:href="#ma3c08a1961" x="75.692" y="388.021327" style="stroke: #000000; stroke-width: 0.8"/>
      </g>
     </g>
     <g id="text_32">
      <!-- 1.0 -->
      <g transform="translate(52.788875 391.820546) scale(0.1 -0.1)">
       <use xlink:href="#DejaVuSans-31"/>
       <use xlink:href="#DejaVuSans-2e" transform="translate(63.623047 0)"/>
       <use xlink:href="#DejaVuSans-30" transform="translate(95.410156 0)"/>
      </g>
     </g>
    </g>
    <g id="ytick_13">
     <g id="line2d_59">
      <path d="M 75.692 357.187324 
L 565.2 357.187324 
" clip-path="url(#p943b2d602c)" style="fill: none; stroke-dasharray: 2.96,1.28; stroke-dashoffset: 0; stroke: #b0b0b0; stroke-opacity: 0.6; stroke-width: 0.8"/>
     </g>
     <g id="line2d_60">
      <g>
       <use xlink:href="#ma3c08a1961" x="75.692" y="357.187324" style="stroke: #000000; stroke-width: 0.8"/>
      </g>
     </g>
     <g id="text_33">
      <!-- 1.1 -->
      <g transform="translate(52.788875 360.986542) scale(0.1 -0.1)">
       <use xlink:href="#DejaVuSans-31"/>
       <use xlink:href="#DejaVuSans-2e" transform="translate(63.623047 0)"/>
       <use xlink:href="#DejaVuSans-31" transform="translate(95.410156 0)"/>
      </g>
     </g>
    </g>
    <g id="ytick_14">
     <g id="line2d_61">
      <path d="M 75.692 326.35332 
L 565.2 326.35332 
" clip-path="url(#p943b2d602c)" style="fill: none; stroke-dasharray: 2.96,1.28; stroke-dashoffset: 0; stroke: #b0b0b0; stroke-opacity: 0.6; stroke-width: 0.8"/>
     </g>
     <g id="line2d_62">
      <g>
       <use xlink:href="#ma3c08a1961" x="75.692" y="326.35332" style="stroke: #000000; stroke-width: 0.8"/>
      </g>
     </g>
     <g id="text_34">
      <!-- 1.2 -->
      <g transform="translate(52.788875 330.152539) scale(0.1 -0.1)">
       <use xlink:href="#DejaVuSans-31"/>
       <use xlink:href="#DejaVuSans-2e" transform="translate(63.623047 0)"/>
       <use xlink:href="#DejaVuSans-32" transform="translate(95.410156 0)"/>
      </g>
     </g>
    </g>
    <g id="text_35">
     <!-- Median Normalized Counts -->
     <g transform="translate(24.437312 486.293437) rotate(-90) scale(0.1 -0.1)">
      <defs>
       <path id="DejaVuSans-4d" d="M 628 4666 
L 1569 4666 
L 2759 1491 
L 3956 4666 
L 4897 4666 
L 4897 0 
L 4281 0 
L 4281 4097 
L 3078 897 
L 2444 897 
L 1241 4097 
L 1241 0 
L 628 0 
L 628 4666 
z
" transform="scale(0.015625)"/>
       <path id="DejaVuSans-4e" d="M 628 4666 
L 1478 4666 
L 3547 763 
L 3547 4666 
L 4159 4666 
L 4159 0 
L 3309 0 
L 1241 3903 
L 1241 0 
L 628 0 
L 628 4666 
z
" transform="scale(0.015625)"/>
       <path id="DejaVuSans-7a" d="M 353 3500 
L 3084 3500 
L 3084 2975 
L 922 459 
L 3084 459 
L 3084 0 
L 275 0 
L 275 525 
L 2438 3041 
L 353 3041 
L 353 3500 
z
" transform="scale(0.015625)"/>
       <path id="DejaVuSans-43" d="M 4122 4306 
L 4122 3641 
Q 3803 3938 3442 4084 
Q 3081 4231 2675 4231 
Q 1875 4231 1450 3742 
Q 1025 3253 1025 2328 
Q 1025 1406 1450 917 
Q 1875 428 2675 428 
Q 3081 428 3442 575 
Q 3803 722 4122 1019 
L 4122 359 
Q 3791 134 3420 21 
Q 3050 -91 2638 -91 
Q 1578 -91 968 557 
Q 359 1206 359 2328 
Q 359 3453 968 4101 
Q 1578 4750 2638 4750 
Q 3056 4750 3426 4639 
Q 3797 4528 4122 4306 
z
" transform="scale(0.015625)"/>
       <path id="DejaVuSans-75" d="M 544 1381 
L 544 3500 
L 1119 3500 
L 1119 1403 
Q 1119 906 1312 657 
Q 1506 409 1894 409 
Q 2359 409 2629 706 
Q 2900 1003 2900 1516 
L 2900 3500 
L 3475 3500 
L 3475 0 
L 2900 0 
L 2900 538 
Q 2691 219 2414 64 
Q 2138 -91 1772 -91 
Q 1169 -91 856 284 
Q 544 659 544 1381 
z
M 1991 3584 
L 1991 3584 
z
" transform="scale(0.015625)"/>
      </defs>
      <use xlink:href="#DejaVuSans-4d"/>
      <use xlink:href="#DejaVuSans-65" transform="translate(86.279297 0)"/>
      <use xlink:href="#DejaVuSans-64" transform="translate(147.802734 0)"/>
      <use xlink:href="#DejaVuSans-69" transform="translate(211.279297 0)"/>
      <use xlink:href="#DejaVuSans-61" transform="translate(239.0625 0)"/>
      <use xlink:href="#DejaVuSans-6e" transform="translate(300.341797 0)"/>
      <use xlink:href="#DejaVuSans-20" transform="translate(363.720703 0)"/>
      <use xlink:href="#DejaVuSans-4e" transform="translate(395.507812 0)"/>
      <use xlink:href="#DejaVuSans-6f" transform="translate(470.3125 0)"/>
      <use xlink:href="#DejaVuSans-72" transform="translate(531.494141 0)"/>
      <use xlink:href="#DejaVuSans-6d" transform="translate(570.857422 0)"/>
      <use xlink:href="#DejaVuSans-61" transform="translate(668.269531 0)"/>
      <use xlink:href="#DejaVuSans-6c" transform="translate(729.548828 0)"/>
      <use xlink:href="#DejaVuSans-69" transform="translate(757.332031 0)"/>
      <use xlink:href="#DejaVuSans-7a" transform="translate(785.115234 0)"/>
      <use xlink:href="#DejaVuSans-65" transform="translate(837.605469 0)"/>
      <use xlink:href="#DejaVuSans-64" transform="translate(899.128906 0)"/>
      <use xlink:href="#DejaVuSans-20" transform="translate(962.605469 0)"/>
      <use xlink:href="#DejaVuSans-43" transform="translate(994.392578 0)"/>
      <use xlink:href="#DejaVuSans-6f" transform="translate(1064.216797 0)"/>
      <use xlink:href="#DejaVuSans-75" transform="translate(1125.398438 0)"/>
      <use xlink:href="#DejaVuSans-6e" transform="translate(1188.777344 0)"/>
      <use xlink:href="#DejaVuSans-74" transform="translate(1252.15625 0)"/>
      <use xlink:href="#DejaVuSans-73" transform="translate(1291.365234 0)"/>
     </g>
    </g>
   </g>
   <g id="line2d_63">
    <path d="M 97.942364 391.99137 
L 102.437387 391.99137 
L 102.437387 406.946795 
L 106.93241 406.946795 
L 106.93241 405.049465 
L 111.427433 405.049465 
L 111.427433 406.707636 
L 115.922455 406.707636 
L 115.922455 406.978683 
L 120.417478 406.978683 
L 120.417478 433.605078 
L 124.912501 433.605078 
L 124.912501 443.187391 
L 129.407524 443.187391 
L 129.407524 440.173985 
L 133.902547 440.173985 
L 133.902547 440.955238 
L 138.39757 440.955238 
L 138.39757 440.572584 
L 142.892593 440.572584 
L 142.892593 437.607009 
L 147.387616 437.607009 
L 147.387616 434.721154 
L 151.882639 434.721154 
L 151.882639 423.576334 
L 156.377662 423.576334 
L 156.377662 425.649047 
L 160.872685 425.649047 
L 160.872685 418.39455 
L 165.367708 418.39455 
L 165.367708 404.220379 
L 169.862731 404.220379 
L 169.862731 408.174479 
L 174.357754 408.174479 
L 174.357754 397.539865 
L 178.852777 397.539865 
L 178.852777 388.898244 
L 183.3478 388.898244 
L 183.3478 382.536609 
L 187.842823 382.536609 
L 187.842823 380.862494 
L 192.337846 380.862494 
L 192.337846 373.703661 
L 196.832869 373.703661 
L 196.832869 363.180654 
L 201.327892 363.180654 
L 201.327892 364.201067 
L 205.822915 364.201067 
L 205.822915 362.208073 
L 210.317938 362.208073 
L 210.317938 354.586866 
L 214.812961 354.586866 
L 214.812961 347.730967 
L 219.307983 347.730967 
L 219.307983 337.734111 
L 223.803006 337.734111 
L 223.803006 338.403757 
L 228.298029 338.403757 
L 228.298029 357.679992 
L 237.288075 357.775655 
L 237.288075 343.569597 
L 241.783098 343.569597 
L 241.783098 314.647273 
L 246.278121 314.647273 
L 246.278121 360.852838 
L 250.773144 360.852838 
L 250.773144 398.655941 
L 255.268167 398.655941 
L 255.268167 403.502902 
L 259.76319 403.502902 
L 259.76319 400.601103 
L 264.258213 400.601103 
L 264.258213 366.289724 
L 268.753236 366.289724 
L 268.753236 316.927257 
L 273.248259 316.927257 
L 273.248259 318.202773 
L 277.743282 318.202773 
L 277.743282 320.961077 
L 282.238305 320.961077 
L 282.238305 325.45727 
L 286.733328 325.45727 
L 286.733328 321.311844 
L 291.228351 321.311844 
L 291.228351 318.123054 
L 295.723374 318.123054 
L 295.723374 316.257612 
L 300.218397 316.257612 
L 300.218397 340.077872 
L 304.71342 340.077872 
L 304.71342 403.199967 
L 309.208443 403.199967 
L 309.208443 503.3758 
L 313.703466 503.3758 
L 313.703466 515.636697 
L 318.198489 515.636697 
L 318.198489 523.592727 
L 322.693511 523.592727 
L 322.693511 499.389812 
L 327.188534 499.389812 
L 327.188534 385.231136 
L 331.683557 385.231136 
L 331.683557 370.977245 
L 336.17858 370.977245 
L 336.17858 355.352175 
L 340.673603 355.352175 
L 340.673603 349.118091 
L 345.168626 349.118091 
L 345.168626 370.658366 
L 349.663649 370.658366 
L 349.663649 378.726005 
L 354.158672 378.726005 
L 354.158672 388.069159 
L 358.653695 388.069159 
L 358.653695 390.17376 
L 363.148718 390.17376 
L 363.148718 400.696767 
L 367.643741 400.696767 
L 367.643741 387.973495 
L 372.138764 387.973495 
L 372.138764 387.383569 
L 376.633787 387.383569 
L 376.633787 388.722861 
L 381.12881 388.722861 
L 381.12881 384.896313 
L 385.623833 384.896313 
L 385.623833 392.039202 
L 390.118856 392.039202 
L 390.118856 386.219661 
L 394.613879 386.219661 
L 394.613879 393.203111 
L 399.108902 393.203111 
L 399.108902 392.995839 
L 403.603925 392.995839 
L 403.603925 388.340206 
L 408.098948 388.340206 
L 408.098948 391.305781 
L 412.593971 391.305781 
L 412.593971 396.041134 
L 417.088994 396.041134 
L 417.088994 391.879763 
L 421.584017 391.879763 
L 421.584017 381.308924 
L 426.079039 381.308924 
L 426.079039 372.491921 
L 430.574062 372.491921 
L 430.574062 375.91987 
L 435.069085 375.91987 
L 435.069085 376.398188 
L 439.564108 376.398188 
L 439.564108 364.519946 
L 444.059131 364.519946 
L 444.059131 379.63481 
L 448.554154 379.63481 
L 448.554154 385.263024 
L 453.049177 385.263024 
L 453.049177 387.798112 
L 457.5442 387.798112 
L 457.5442 398.512446 
L 462.039223 398.512446 
L 462.039223 413.308431 
L 466.534246 413.308431 
L 466.534246 421.264461 
L 471.029269 421.264461 
L 471.029269 434.641435 
L 475.524292 434.641435 
L 475.524292 432.80788 
L 480.019315 432.80788 
L 480.019315 433.062984 
L 484.514338 433.062984 
L 484.514338 422.811024 
L 489.009361 422.811024 
L 489.009361 415.301424 
L 493.504384 415.301424 
L 493.504384 408.349862 
L 497.999407 408.349862 
L 497.999407 404.571146 
L 502.49443 404.571146 
L 502.49443 379.363763 
L 506.989453 379.363763 
L 506.989453 355.20868 
L 511.484476 355.20868 
L 511.484476 354.826025 
L 515.979499 354.826025 
L 515.979499 367.501464 
L 520.474522 367.501464 
L 520.474522 370.977245 
L 524.969545 370.977245 
L 524.969545 373.703661 
L 529.464567 373.703661 
L 529.464567 377.912863 
L 533.95959 377.912863 
L 533.95959 385.534071 
L 538.454613 385.534071 
L 538.454613 406.978683 
L 542.949636 406.978683 
L 542.949636 399.803906 
L 542.949636 399.803906 
" clip-path="url(#p943b2d602c)" style="fill: none; stroke: #000080; stroke-width: 1.3; stroke-linecap: square"/>
   </g>
   <g id="patch_9">
    <path d="M 75.692 534.04 
L 75.692 304.2 
" style="fill: none; stroke: #000000; stroke-width: 0.8; stroke-linejoin: miter; stroke-linecap: square"/>
   </g>
   <g id="patch_10">
    <path d="M 565.2 534.04 
L 565.2 304.2 
" style="fill: none; stroke: #000000; stroke-width: 0.8; stroke-linejoin: miter; stroke-linecap: square"/>
   </g>
   <g id="patch_11">
    <path d="M 75.692 534.04 
L 565.2 534.04 
" style="fill: none; stroke: #000000; stroke-width: 0.8; stroke-linejoin: miter; stroke-linecap: square"/>
   </g>
   <g id="patch_12">
    <path d="M 75.692 304.2 
L 565.2 304.2 
" style="fill: none; stroke: #000000; stroke-width: 0.8; stroke-linejoin: miter; stroke-linecap: square"/>
   </g>
  </g>
  <g id="text_36">
   <!-- First Run -->
   <g transform="translate(261.961875 26.398125) scale(0.12 -0.12)">
    <defs>
     <path id="DejaVuSans-46" d="M 628 4666 
L 3309 4666 
L 3309 4134 
L 1259 4134 
L 1259 2759 
L 3109 2759 
L 3109 2228 
L 1259 2228 
L 1259 0 
L 628 0 
L 628 4666 
z
" transform="scale(0.015625)"/>
    </defs>
    <use xlink:href="#DejaVuSans-46"/>
    <use xlink:href="#DejaVuSans-69" transform="translate(50.269531 0)"/>
    <use xlink:href="#DejaVuSans-72" transform="translate(78.052734 0)"/>
    <use xlink:href="#DejaVuSans-73" transform="translate(119.166016 0)"/>
    <use xlink:href="#DejaVuSans-74" transform="translate(171.265625 0)"/>
    <use xlink:href="#DejaVuSans-20" transform="translate(210.474609 0)"/>
    <use xlink:href="#DejaVuSans-52" transform="translate(242.261719 0)"/>
    <use xlink:href="#DejaVuSans-75" transform="translate(307.244141 0)"/>
    <use xlink:href="#DejaVuSans-6e" transform="translate(370.623047 0)"/>
   </g>
  </g>
 </g>
 <defs>
  <clipPath id="p01d175d9a3">
   <rect x="75.692" y="32.4" width="489.508" height="229.84"/>
  </clipPath>
  <clipPath id="p943b2d602c">
   <rect x="75.692" y="304.2" width="489.508" height="229.84"/>
  </clipPath>
 </defs>
</svg>
