<?xml version="1.0" encoding="utf-8" standalone="no"?>
<!DOCTYPE svg PUBLIC "-//W3C//DTD SVG 1.1//EN"
  "http://www.w3.org/Graphics/SVG/1.1/DTD/svg11.dtd">
<svg xmlns:xlink="http://www.w3.org/1999/xlink" width="576pt" height="576pt" viewBox="0 0 576 576" xmlns="http://www.w3.org/2000/svg" version="1.1">
 <metadata>
  <rdf:RDF xmlns:dc="http://purl.org/dc/elements/1.1/" xmlns:cc="http://creativecommons.org/ns#" xmlns:rdf="http://www.w3.org/1999/02/22-rdf-syntax-ns#">
   <cc:Work>
    <dc:type rdf:resource="http://purl.org/dc/dcmitype/StillImage"/>
    <dc:date>2025-10-22T22:21:37.936670</dc:date>
    <dc:format>image/svg+xml</dc:format>
    <dc:creator>
     <cc:Agent>
      <dc:title>Matplotlib v3.10.1, https://matplotlib.org/</dc:title>
     </cc:Agent>
    </dc:creator>
   </cc:Work>
  </rdf:RDF>
 </metadata>
 <defs>
  <style type="text/css">*{stroke-linejoin: round; stroke-linecap: butt}</style>
 </defs>
 <g id="figure_1">
  <g id="patch_1">
   <path d="M 0 576 
L 576 576 
L 576 0 
L 0 0 
z
" style="fill: #ffffff"/>
  </g>
  <g id="axes_1">
   <g id="patch_2">
    <path d="M 75.692 262.24 
L 565.2 262.24 
L 565.2 32.4 
L 75.692 32.4 
z
" style="fill: #ffffff"/>
   </g>
   <g id="matplotlib.axis_1">
    <g id="xtick_1">
     <g id="line2d_1">
      <path d="M 144.297114 262.24 
L 144.297114 32.4 
" clip-path="url(#p5c4e79fb7d)" style="fill: none; stroke-dasharray: 2.96,1.28; stroke-dashoffset: 0; stroke: #b0b0b0; stroke-opacity: 0.6; stroke-width: 0.8"/>
     </g>
     <g id="line2d_2">
      <defs>
       <path id="m9516527570" d="M 0 0 
L 0 3.5 
" style="stroke: #000000; stroke-width: 0.8"/>
      </defs>
      <g>
       <use xlink:href="#m9516527570" x="144.297114" y="262.24" style="stroke: #000000; stroke-width: 0.8"/>
      </g>
     </g>
     <g id="text_1">
      <!-- 77680 -->
      <g transform="translate(128.390864 276.838437) scale(0.1 -0.1)">
       <defs>
        <path id="DejaVuSans-37" d="M 525 4666 
L 3525 4666 
L 3525 4397 
L 1831 0 
L 1172 0 
L 2766 4134 
L 525 4134 
L 525 4666 
z
" transform="scale(0.015625)"/>
        <path id="DejaVuSans-36" d="M 2113 2584 
Q 1688 2584 1439 2293 
Q 1191 2003 1191 1497 
Q 1191 994 1439 701 
Q 1688 409 2113 409 
Q 2538 409 2786 701 
Q 3034 994 3034 1497 
Q 3034 2003 2786 2293 
Q 2538 2584 2113 2584 
z
M 3366 4563 
L 3366 3988 
Q 3128 4100 2886 4159 
Q 2644 4219 2406 4219 
Q 1781 4219 1451 3797 
Q 1122 3375 1075 2522 
Q 1259 2794 1537 2939 
Q 1816 3084 2150 3084 
Q 2853 3084 3261 2657 
Q 3669 2231 3669 1497 
Q 3669 778 3244 343 
Q 2819 -91 2113 -91 
Q 1303 -91 875 529 
Q 447 1150 447 2328 
Q 447 3434 972 4092 
Q 1497 4750 2381 4750 
Q 2619 4750 2861 4703 
Q 3103 4656 3366 4563 
z
" transform="scale(0.015625)"/>
        <path id="DejaVuSans-38" d="M 2034 2216 
Q 1584 2216 1326 1975 
Q 1069 1734 1069 1313 
Q 1069 891 1326 650 
Q 1584 409 2034 409 
Q 2484 409 2743 651 
Q 3003 894 3003 1313 
Q 3003 1734 2745 1975 
Q 2488 2216 2034 2216 
z
M 1403 2484 
Q 997 2584 770 2862 
Q 544 3141 544 3541 
Q 544 4100 942 4425 
Q 1341 4750 2034 4750 
Q 2731 4750 3128 4425 
Q 3525 4100 3525 3541 
Q 3525 3141 3298 2862 
Q 3072 2584 2669 2484 
Q 3125 2378 3379 2068 
Q 3634 1759 3634 1313 
Q 3634 634 3220 271 
Q 2806 -91 2034 -91 
Q 1263 -91 848 271 
Q 434 634 434 1313 
Q 434 1759 690 2068 
Q 947 2378 1403 2484 
z
M 1172 3481 
Q 1172 3119 1398 2916 
Q 1625 2713 2034 2713 
Q 2441 2713 2670 2916 
Q 2900 3119 2900 3481 
Q 2900 3844 2670 4047 
Q 2441 4250 2034 4250 
Q 1625 4250 1398 4047 
Q 1172 3844 1172 3481 
z
" transform="scale(0.015625)"/>
        <path id="DejaVuSans-30" d="M 2034 4250 
Q 1547 4250 1301 3770 
Q 1056 3291 1056 2328 
Q 1056 1369 1301 889 
Q 1547 409 2034 409 
Q 2525 409 2770 889 
Q 3016 1369 3016 2328 
Q 3016 3291 2770 3770 
Q 2525 4250 2034 4250 
z
M 2034 4750 
Q 2819 4750 3233 4129 
Q 3647 3509 3647 2328 
Q 3647 1150 3233 529 
Q 2819 -91 2034 -91 
Q 1250 -91 836 529 
Q 422 1150 422 2328 
Q 422 3509 836 4129 
Q 1250 4750 2034 4750 
z
" transform="scale(0.015625)"/>
       </defs>
       <use xlink:href="#DejaVuSans-37"/>
       <use xlink:href="#DejaVuSans-37" transform="translate(63.623047 0)"/>
       <use xlink:href="#DejaVuSans-36" transform="translate(127.246094 0)"/>
       <use xlink:href="#DejaVuSans-38" transform="translate(190.869141 0)"/>
       <use xlink:href="#DejaVuSans-30" transform="translate(254.492188 0)"/>
      </g>
     </g>
    </g>
    <g id="xtick_2">
     <g id="line2d_3">
      <path d="M 233.745812 262.24 
L 233.745812 32.4 
" clip-path="url(#p5c4e79fb7d)" style="fill: none; stroke-dasharray: 2.96,1.28; stroke-dashoffset: 0; stroke: #b0b0b0; stroke-opacity: 0.6; stroke-width: 0.8"/>
     </g>
     <g id="line2d_4">
      <g>
       <use xlink:href="#m9516527570" x="233.745812" y="262.24" style="stroke: #000000; stroke-width: 0.8"/>
      </g>
     </g>
     <g id="text_2">
      <!-- 77700 -->
      <g transform="translate(217.839562 276.838437) scale(0.1 -0.1)">
       <use xlink:href="#DejaVuSans-37"/>
       <use xlink:href="#DejaVuSans-37" transform="translate(63.623047 0)"/>
       <use xlink:href="#DejaVuSans-37" transform="translate(127.246094 0)"/>
       <use xlink:href="#DejaVuSans-30" transform="translate(190.869141 0)"/>
       <use xlink:href="#DejaVuSans-30" transform="translate(254.492188 0)"/>
      </g>
     </g>
    </g>
    <g id="xtick_3">
     <g id="line2d_5">
      <path d="M 323.19451 262.24 
L 323.19451 32.4 
" clip-path="url(#p5c4e79fb7d)" style="fill: none; stroke-dasharray: 2.96,1.28; stroke-dashoffset: 0; stroke: #b0b0b0; stroke-opacity: 0.6; stroke-width: 0.8"/>
     </g>
     <g id="line2d_6">
      <g>
       <use xlink:href="#m9516527570" x="323.19451" y="262.24" style="stroke: #000000; stroke-width: 0.8"/>
      </g>
     </g>
     <g id="text_3">
      <!-- 77720 -->
      <g transform="translate(307.28826 276.838437) scale(0.1 -0.1)">
       <defs>
        <path id="DejaVuSans-32" d="M 1228 531 
L 3431 531 
L 3431 0 
L 469 0 
L 469 531 
Q 828 903 1448 1529 
Q 2069 2156 2228 2338 
Q 2531 2678 2651 2914 
Q 2772 3150 2772 3378 
Q 2772 3750 2511 3984 
Q 2250 4219 1831 4219 
Q 1534 4219 1204 4116 
Q 875 4013 500 3803 
L 500 4441 
Q 881 4594 1212 4672 
Q 1544 4750 1819 4750 
Q 2544 4750 2975 4387 
Q 3406 4025 3406 3419 
Q 3406 3131 3298 2873 
Q 3191 2616 2906 2266 
Q 2828 2175 2409 1742 
Q 1991 1309 1228 531 
z
" transform="scale(0.015625)"/>
       </defs>
       <use xlink:href="#DejaVuSans-37"/>
       <use xlink:href="#DejaVuSans-37" transform="translate(63.623047 0)"/>
       <use xlink:href="#DejaVuSans-37" transform="translate(127.246094 0)"/>
       <use xlink:href="#DejaVuSans-32" transform="translate(190.869141 0)"/>
       <use xlink:href="#DejaVuSans-30" transform="translate(254.492188 0)"/>
      </g>
     </g>
    </g>
    <g id="xtick_4">
     <g id="line2d_7">
      <path d="M 412.643208 262.24 
L 412.643208 32.4 
" clip-path="url(#p5c4e79fb7d)" style="fill: none; stroke-dasharray: 2.96,1.28; stroke-dashoffset: 0; stroke: #b0b0b0; stroke-opacity: 0.6; stroke-width: 0.8"/>
     </g>
     <g id="line2d_8">
      <g>
       <use xlink:href="#m9516527570" x="412.643208" y="262.24" style="stroke: #000000; stroke-width: 0.8"/>
      </g>
     </g>
     <g id="text_4">
      <!-- 77740 -->
      <g transform="translate(396.736958 276.838437) scale(0.1 -0.1)">
       <defs>
        <path id="DejaVuSans-34" d="M 2419 4116 
L 825 1625 
L 2419 1625 
L 2419 4116 
z
M 2253 4666 
L 3047 4666 
L 3047 1625 
L 3713 1625 
L 3713 1100 
L 3047 1100 
L 3047 0 
L 2419 0 
L 2419 1100 
L 313 1100 
L 313 1709 
L 2253 4666 
z
" transform="scale(0.015625)"/>
       </defs>
       <use xlink:href="#DejaVuSans-37"/>
       <use xlink:href="#DejaVuSans-37" transform="translate(63.623047 0)"/>
       <use xlink:href="#DejaVuSans-37" transform="translate(127.246094 0)"/>
       <use xlink:href="#DejaVuSans-34" transform="translate(190.869141 0)"/>
       <use xlink:href="#DejaVuSans-30" transform="translate(254.492188 0)"/>
      </g>
     </g>
    </g>
    <g id="xtick_5">
     <g id="line2d_9">
      <path d="M 502.091906 262.24 
L 502.091906 32.4 
" clip-path="url(#p5c4e79fb7d)" style="fill: none; stroke-dasharray: 2.96,1.28; stroke-dashoffset: 0; stroke: #b0b0b0; stroke-opacity: 0.6; stroke-width: 0.8"/>
     </g>
     <g id="line2d_10">
      <g>
       <use xlink:href="#m9516527570" x="502.091906" y="262.24" style="stroke: #000000; stroke-width: 0.8"/>
      </g>
     </g>
     <g id="text_5">
      <!-- 77760 -->
      <g transform="translate(486.185656 276.838437) scale(0.1 -0.1)">
       <use xlink:href="#DejaVuSans-37"/>
       <use xlink:href="#DejaVuSans-37" transform="translate(63.623047 0)"/>
       <use xlink:href="#DejaVuSans-37" transform="translate(127.246094 0)"/>
       <use xlink:href="#DejaVuSans-36" transform="translate(190.869141 0)"/>
       <use xlink:href="#DejaVuSans-30" transform="translate(254.492188 0)"/>
      </g>
     </g>
    </g>
    <g id="text_6">
     <!-- Period (s) -->
     <g transform="translate(296.762406 290.516562) scale(0.1 -0.1)">
      <defs>
       <path id="DejaVuSans-50" d="M 1259 4147 
L 1259 2394 
L 2053 2394 
Q 2494 2394 2734 2622 
Q 2975 2850 2975 3272 
Q 2975 3691 2734 3919 
Q 2494 4147 2053 4147 
L 1259 4147 
z
M 628 4666 
L 2053 4666 
Q 2838 4666 3239 4311 
Q 3641 3956 3641 3272 
Q 3641 2581 3239 2228 
Q 2838 1875 2053 1875 
L 1259 1875 
L 1259 0 
L 628 0 
L 628 4666 
z
" transform="scale(0.015625)"/>
       <path id="DejaVuSans-65" d="M 3597 1894 
L 3597 1613 
L 953 1613 
Q 991 1019 1311 708 
Q 1631 397 2203 397 
Q 2534 397 2845 478 
Q 3156 559 3463 722 
L 3463 178 
Q 3153 47 2828 -22 
Q 2503 -91 2169 -91 
Q 1331 -91 842 396 
Q 353 884 353 1716 
Q 353 2575 817 3079 
Q 1281 3584 2069 3584 
Q 2775 3584 3186 3129 
Q 3597 2675 3597 1894 
z
M 3022 2063 
Q 3016 2534 2758 2815 
Q 2500 3097 2075 3097 
Q 1594 3097 1305 2825 
Q 1016 2553 972 2059 
L 3022 2063 
z
" transform="scale(0.015625)"/>
       <path id="DejaVuSans-72" d="M 2631 2963 
Q 2534 3019 2420 3045 
Q 2306 3072 2169 3072 
Q 1681 3072 1420 2755 
Q 1159 2438 1159 1844 
L 1159 0 
L 581 0 
L 581 3500 
L 1159 3500 
L 1159 2956 
Q 1341 3275 1631 3429 
Q 1922 3584 2338 3584 
Q 2397 3584 2469 3576 
Q 2541 3569 2628 3553 
L 2631 2963 
z
" transform="scale(0.015625)"/>
       <path id="DejaVuSans-69" d="M 603 3500 
L 1178 3500 
L 1178 0 
L 603 0 
L 603 3500 
z
M 603 4863 
L 1178 4863 
L 1178 4134 
L 603 4134 
L 603 4863 
z
" transform="scale(0.015625)"/>
       <path id="DejaVuSans-6f" d="M 1959 3097 
Q 1497 3097 1228 2736 
Q 959 2375 959 1747 
Q 959 1119 1226 758 
Q 1494 397 1959 397 
Q 2419 397 2687 759 
Q 2956 1122 2956 1747 
Q 2956 2369 2687 2733 
Q 2419 3097 1959 3097 
z
M 1959 3584 
Q 2709 3584 3137 3096 
Q 3566 2609 3566 1747 
Q 3566 888 3137 398 
Q 2709 -91 1959 -91 
Q 1206 -91 779 398 
Q 353 888 353 1747 
Q 353 2609 779 3096 
Q 1206 3584 1959 3584 
z
" transform="scale(0.015625)"/>
       <path id="DejaVuSans-64" d="M 2906 2969 
L 2906 4863 
L 3481 4863 
L 3481 0 
L 2906 0 
L 2906 525 
Q 2725 213 2448 61 
Q 2172 -91 1784 -91 
Q 1150 -91 751 415 
Q 353 922 353 1747 
Q 353 2572 751 3078 
Q 1150 3584 1784 3584 
Q 2172 3584 2448 3432 
Q 2725 3281 2906 2969 
z
M 947 1747 
Q 947 1113 1208 752 
Q 1469 391 1925 391 
Q 2381 391 2643 752 
Q 2906 1113 2906 1747 
Q 2906 2381 2643 2742 
Q 2381 3103 1925 3103 
Q 1469 3103 1208 2742 
Q 947 2381 947 1747 
z
" transform="scale(0.015625)"/>
       <path id="DejaVuSans-20" transform="scale(0.015625)"/>
       <path id="DejaVuSans-28" d="M 1984 4856 
Q 1566 4138 1362 3434 
Q 1159 2731 1159 2009 
Q 1159 1288 1364 580 
Q 1569 -128 1984 -844 
L 1484 -844 
Q 1016 -109 783 600 
Q 550 1309 550 2009 
Q 550 2706 781 3412 
Q 1013 4119 1484 4856 
L 1984 4856 
z
" transform="scale(0.015625)"/>
       <path id="DejaVuSans-73" d="M 2834 3397 
L 2834 2853 
Q 2591 2978 2328 3040 
Q 2066 3103 1784 3103 
Q 1356 3103 1142 2972 
Q 928 2841 928 2578 
Q 928 2378 1081 2264 
Q 1234 2150 1697 2047 
L 1894 2003 
Q 2506 1872 2764 1633 
Q 3022 1394 3022 966 
Q 3022 478 2636 193 
Q 2250 -91 1575 -91 
Q 1294 -91 989 -36 
Q 684 19 347 128 
L 347 722 
Q 666 556 975 473 
Q 1284 391 1588 391 
Q 1994 391 2212 530 
Q 2431 669 2431 922 
Q 2431 1156 2273 1281 
Q 2116 1406 1581 1522 
L 1381 1569 
Q 847 1681 609 1914 
Q 372 2147 372 2553 
Q 372 3047 722 3315 
Q 1072 3584 1716 3584 
Q 2034 3584 2315 3537 
Q 2597 3491 2834 3397 
z
" transform="scale(0.015625)"/>
       <path id="DejaVuSans-29" d="M 513 4856 
L 1013 4856 
Q 1481 4119 1714 3412 
Q 1947 2706 1947 2009 
Q 1947 1309 1714 600 
Q 1481 -109 1013 -844 
L 513 -844 
Q 928 -128 1133 580 
Q 1338 1288 1338 2009 
Q 1338 2731 1133 3434 
Q 928 4138 513 4856 
z
" transform="scale(0.015625)"/>
      </defs>
      <use xlink:href="#DejaVuSans-50"/>
      <use xlink:href="#DejaVuSans-65" transform="translate(56.677734 0)"/>
      <use xlink:href="#DejaVuSans-72" transform="translate(118.201172 0)"/>
      <use xlink:href="#DejaVuSans-69" transform="translate(159.314453 0)"/>
      <use xlink:href="#DejaVuSans-6f" transform="translate(187.097656 0)"/>
      <use xlink:href="#DejaVuSans-64" transform="translate(248.279297 0)"/>
      <use xlink:href="#DejaVuSans-20" transform="translate(311.755859 0)"/>
      <use xlink:href="#DejaVuSans-28" transform="translate(343.542969 0)"/>
      <use xlink:href="#DejaVuSans-73" transform="translate(382.556641 0)"/>
      <use xlink:href="#DejaVuSans-29" transform="translate(434.65625 0)"/>
     </g>
    </g>
   </g>
   <g id="matplotlib.axis_2">
    <g id="ytick_1">
     <g id="line2d_11">
      <path d="M 75.692 261.70173 
L 565.2 261.70173 
" clip-path="url(#p5c4e79fb7d)" style="fill: none; stroke-dasharray: 2.96,1.28; stroke-dashoffset: 0; stroke: #b0b0b0; stroke-opacity: 0.6; stroke-width: 0.8"/>
     </g>
     <g id="line2d_12">
      <defs>
       <path id="md020618dd4" d="M 0 0 
L -3.5 0 
" style="stroke: #000000; stroke-width: 0.8"/>
      </defs>
      <g>
       <use xlink:href="#md020618dd4" x="75.692" y="261.70173" style="stroke: #000000; stroke-width: 0.8"/>
      </g>
     </g>
     <g id="text_7">
      <!-- 0 -->
      <g transform="translate(62.3295 265.500949) scale(0.1 -0.1)">
       <use xlink:href="#DejaVuSans-30"/>
      </g>
     </g>
    </g>
    <g id="ytick_2">
     <g id="line2d_13">
      <path d="M 75.692 223.166397 
L 565.2 223.166397 
" clip-path="url(#p5c4e79fb7d)" style="fill: none; stroke-dasharray: 2.96,1.28; stroke-dashoffset: 0; stroke: #b0b0b0; stroke-opacity: 0.6; stroke-width: 0.8"/>
     </g>
     <g id="line2d_14">
      <g>
       <use xlink:href="#md020618dd4" x="75.692" y="223.166397" style="stroke: #000000; stroke-width: 0.8"/>
      </g>
     </g>
     <g id="text_8">
      <!-- 100000 -->
      <g transform="translate(30.517 226.965616) scale(0.1 -0.1)">
       <defs>
        <path id="DejaVuSans-31" d="M 794 531 
L 1825 531 
L 1825 4091 
L 703 3866 
L 703 4441 
L 1819 4666 
L 2450 4666 
L 2450 531 
L 3481 531 
L 3481 0 
L 794 0 
L 794 531 
z
" transform="scale(0.015625)"/>
       </defs>
       <use xlink:href="#DejaVuSans-31"/>
       <use xlink:href="#DejaVuSans-30" transform="translate(63.623047 0)"/>
       <use xlink:href="#DejaVuSans-30" transform="translate(127.246094 0)"/>
       <use xlink:href="#DejaVuSans-30" transform="translate(190.869141 0)"/>
       <use xlink:href="#DejaVuSans-30" transform="translate(254.492188 0)"/>
       <use xlink:href="#DejaVuSans-30" transform="translate(318.115234 0)"/>
      </g>
     </g>
    </g>
    <g id="ytick_3">
     <g id="line2d_15">
      <path d="M 75.692 184.631064 
L 565.2 184.631064 
" clip-path="url(#p5c4e79fb7d)" style="fill: none; stroke-dasharray: 2.96,1.28; stroke-dashoffset: 0; stroke: #b0b0b0; stroke-opacity: 0.6; stroke-width: 0.8"/>
     </g>
     <g id="line2d_16">
      <g>
       <use xlink:href="#md020618dd4" x="75.692" y="184.631064" style="stroke: #000000; stroke-width: 0.8"/>
      </g>
     </g>
     <g id="text_9">
      <!-- 200000 -->
      <g transform="translate(30.517 188.430283) scale(0.1 -0.1)">
       <use xlink:href="#DejaVuSans-32"/>
       <use xlink:href="#DejaVuSans-30" transform="translate(63.623047 0)"/>
       <use xlink:href="#DejaVuSans-30" transform="translate(127.246094 0)"/>
       <use xlink:href="#DejaVuSans-30" transform="translate(190.869141 0)"/>
       <use xlink:href="#DejaVuSans-30" transform="translate(254.492188 0)"/>
       <use xlink:href="#DejaVuSans-30" transform="translate(318.115234 0)"/>
      </g>
     </g>
    </g>
    <g id="ytick_4">
     <g id="line2d_17">
      <path d="M 75.692 146.095732 
L 565.2 146.095732 
" clip-path="url(#p5c4e79fb7d)" style="fill: none; stroke-dasharray: 2.96,1.28; stroke-dashoffset: 0; stroke: #b0b0b0; stroke-opacity: 0.6; stroke-width: 0.8"/>
     </g>
     <g id="line2d_18">
      <g>
       <use xlink:href="#md020618dd4" x="75.692" y="146.095732" style="stroke: #000000; stroke-width: 0.8"/>
      </g>
     </g>
     <g id="text_10">
      <!-- 300000 -->
      <g transform="translate(30.517 149.89495) scale(0.1 -0.1)">
       <defs>
        <path id="DejaVuSans-33" d="M 2597 2516 
Q 3050 2419 3304 2112 
Q 3559 1806 3559 1356 
Q 3559 666 3084 287 
Q 2609 -91 1734 -91 
Q 1441 -91 1130 -33 
Q 819 25 488 141 
L 488 750 
Q 750 597 1062 519 
Q 1375 441 1716 441 
Q 2309 441 2620 675 
Q 2931 909 2931 1356 
Q 2931 1769 2642 2001 
Q 2353 2234 1838 2234 
L 1294 2234 
L 1294 2753 
L 1863 2753 
Q 2328 2753 2575 2939 
Q 2822 3125 2822 3475 
Q 2822 3834 2567 4026 
Q 2313 4219 1838 4219 
Q 1578 4219 1281 4162 
Q 984 4106 628 3988 
L 628 4550 
Q 988 4650 1302 4700 
Q 1616 4750 1894 4750 
Q 2613 4750 3031 4423 
Q 3450 4097 3450 3541 
Q 3450 3153 3228 2886 
Q 3006 2619 2597 2516 
z
" transform="scale(0.015625)"/>
       </defs>
       <use xlink:href="#DejaVuSans-33"/>
       <use xlink:href="#DejaVuSans-30" transform="translate(63.623047 0)"/>
       <use xlink:href="#DejaVuSans-30" transform="translate(127.246094 0)"/>
       <use xlink:href="#DejaVuSans-30" transform="translate(190.869141 0)"/>
       <use xlink:href="#DejaVuSans-30" transform="translate(254.492188 0)"/>
       <use xlink:href="#DejaVuSans-30" transform="translate(318.115234 0)"/>
      </g>
     </g>
    </g>
    <g id="ytick_5">
     <g id="line2d_19">
      <path d="M 75.692 107.560399 
L 565.2 107.560399 
" clip-path="url(#p5c4e79fb7d)" style="fill: none; stroke-dasharray: 2.96,1.28; stroke-dashoffset: 0; stroke: #b0b0b0; stroke-opacity: 0.6; stroke-width: 0.8"/>
     </g>
     <g id="line2d_20">
      <g>
       <use xlink:href="#md020618dd4" x="75.692" y="107.560399" style="stroke: #000000; stroke-width: 0.8"/>
      </g>
     </g>
     <g id="text_11">
      <!-- 400000 -->
      <g transform="translate(30.517 111.359617) scale(0.1 -0.1)">
       <use xlink:href="#DejaVuSans-34"/>
       <use xlink:href="#DejaVuSans-30" transform="translate(63.623047 0)"/>
       <use xlink:href="#DejaVuSans-30" transform="translate(127.246094 0)"/>
       <use xlink:href="#DejaVuSans-30" transform="translate(190.869141 0)"/>
       <use xlink:href="#DejaVuSans-30" transform="translate(254.492188 0)"/>
       <use xlink:href="#DejaVuSans-30" transform="translate(318.115234 0)"/>
      </g>
     </g>
    </g>
    <g id="ytick_6">
     <g id="line2d_21">
      <path d="M 75.692 69.025066 
L 565.2 69.025066 
" clip-path="url(#p5c4e79fb7d)" style="fill: none; stroke-dasharray: 2.96,1.28; stroke-dashoffset: 0; stroke: #b0b0b0; stroke-opacity: 0.6; stroke-width: 0.8"/>
     </g>
     <g id="line2d_22">
      <g>
       <use xlink:href="#md020618dd4" x="75.692" y="69.025066" style="stroke: #000000; stroke-width: 0.8"/>
      </g>
     </g>
     <g id="text_12">
      <!-- 500000 -->
      <g transform="translate(30.517 72.824284) scale(0.1 -0.1)">
       <defs>
        <path id="DejaVuSans-35" d="M 691 4666 
L 3169 4666 
L 3169 4134 
L 1269 4134 
L 1269 2991 
Q 1406 3038 1543 3061 
Q 1681 3084 1819 3084 
Q 2600 3084 3056 2656 
Q 3513 2228 3513 1497 
Q 3513 744 3044 326 
Q 2575 -91 1722 -91 
Q 1428 -91 1123 -41 
Q 819 9 494 109 
L 494 744 
Q 775 591 1075 516 
Q 1375 441 1709 441 
Q 2250 441 2565 725 
Q 2881 1009 2881 1497 
Q 2881 1984 2565 2268 
Q 2250 2553 1709 2553 
Q 1456 2553 1204 2497 
Q 953 2441 691 2322 
L 691 4666 
z
" transform="scale(0.015625)"/>
       </defs>
       <use xlink:href="#DejaVuSans-35"/>
       <use xlink:href="#DejaVuSans-30" transform="translate(63.623047 0)"/>
       <use xlink:href="#DejaVuSans-30" transform="translate(127.246094 0)"/>
       <use xlink:href="#DejaVuSans-30" transform="translate(190.869141 0)"/>
       <use xlink:href="#DejaVuSans-30" transform="translate(254.492188 0)"/>
       <use xlink:href="#DejaVuSans-30" transform="translate(318.115234 0)"/>
      </g>
     </g>
    </g>
    <g id="text_13">
     <!-- $\chi^2$ -->
     <g transform="translate(24.417 152.87) rotate(-90) scale(0.1 -0.1)">
      <defs>
       <path id="DejaVuSans-Oblique-3c7" d="M 1922 -781 
L 1691 416 
L 394 -1334 
L -284 -1334 
L 1553 1141 
L 1269 2613 
Q 1194 3006 713 3006 
L 559 3006 
L 653 3500 
L 872 3494 
Q 1675 3472 1775 2950 
L 2006 1753 
L 3303 3503 
L 3981 3503 
L 2144 1028 
L 2428 -444 
Q 2503 -838 2984 -838 
L 3138 -838 
L 3044 -1331 
L 2825 -1325 
Q 2022 -1303 1922 -781 
z
" transform="scale(0.015625)"/>
      </defs>
      <use xlink:href="#DejaVuSans-Oblique-3c7" transform="translate(0 0.765625)"/>
      <use xlink:href="#DejaVuSans-32" transform="translate(63.652396 39.046875) scale(0.7)"/>
     </g>
    </g>
   </g>
   <g id="line2d_23">
    <path d="M 97.942364 239.587256 
L 100.178581 245.406128 
L 102.414799 247.073196 
L 104.651016 245.304215 
L 106.887233 249.129955 
L 109.123451 251.792727 
L 111.359668 251.327036 
L 113.595886 250.054942 
L 115.832103 249.998369 
L 118.068321 248.939476 
L 120.304538 247.056022 
L 122.540756 250.133281 
L 124.776973 249.713179 
L 127.01319 247.273886 
L 129.249408 244.47646 
L 131.485625 239.767671 
L 133.721843 239.155229 
L 138.194278 238.683787 
L 140.430495 239.280646 
L 142.666713 240.230524 
L 144.90293 241.433136 
L 147.139148 240.763417 
L 149.375365 245.148207 
L 151.611582 244.967699 
L 153.8478 242.730788 
L 156.084017 237.55235 
L 158.320235 227.494551 
L 160.556452 229.500123 
L 162.79267 237.662899 
L 165.028887 240.131989 
L 167.265105 237.352015 
L 169.501322 238.359131 
L 171.73754 240.552138 
L 173.973757 238.980753 
L 176.209974 242.596225 
L 178.446192 241.660976 
L 180.682409 235.09366 
L 182.918627 229.185061 
L 185.154844 223.781738 
L 187.391062 228.271236 
L 189.627279 229.99119 
L 191.863497 230.807317 
L 194.099714 234.748788 
L 198.572149 236.838437 
L 200.808366 240.273805 
L 203.044584 246.37368 
L 205.280801 247.974648 
L 207.517019 250.110652 
L 209.753236 248.264483 
L 211.989454 244.498316 
L 214.225671 243.332466 
L 216.461889 242.394723 
L 218.698106 243.473413 
L 220.934323 244.118807 
L 223.170541 243.246424 
L 225.406758 238.810711 
L 227.642976 236.398209 
L 229.879193 237.602549 
L 232.115411 237.168962 
L 234.351628 236.990693 
L 236.587846 234.238029 
L 238.824063 233.735001 
L 241.06028 234.797234 
L 243.296498 236.809604 
L 245.532715 239.181724 
L 247.768933 240.950529 
L 250.00515 242.181111 
L 252.241368 240.920407 
L 254.477585 241.591285 
L 256.713803 240.601002 
L 258.95002 237.868102 
L 261.186238 238.121425 
L 263.422455 237.519686 
L 265.658672 238.172548 
L 267.89489 239.611999 
L 270.131107 239.120479 
L 272.367325 236.792015 
L 274.603542 232.328231 
L 276.83976 231.539033 
L 279.075977 226.024277 
L 281.312195 228.220276 
L 283.548412 232.140071 
L 285.78463 236.320158 
L 288.020847 238.997734 
L 290.257064 235.985306 
L 292.493282 239.047034 
L 294.729499 239.120544 
L 296.965717 238.197928 
L 299.201934 239.441858 
L 303.674369 244.087215 
L 308.146804 248.925854 
L 310.383021 250.006933 
L 312.619239 250.486733 
L 314.855456 250.130387 
L 317.091674 247.672653 
L 319.327891 247.032714 
L 321.564109 246.734486 
L 323.800326 243.621709 
L 326.036544 241.403546 
L 328.272761 241.602667 
L 330.508979 241.38683 
L 332.745196 238.714651 
L 334.981413 241.088195 
L 337.217631 241.618634 
L 339.453848 242.388898 
L 341.690066 243.031219 
L 346.162501 234.809563 
L 348.398718 228.495981 
L 350.634936 215.346573 
L 352.871153 177.859521 
L 355.10737 42.847273 
L 357.343588 105.015741 
L 359.579805 208.020997 
L 361.816023 232.528412 
L 364.05224 236.854119 
L 366.288458 237.434293 
L 368.524675 230.873248 
L 370.760893 216.268699 
L 372.99711 218.326945 
L 375.233328 220.998673 
L 377.469545 218.142355 
L 379.705762 215.984848 
L 381.94198 219.937313 
L 384.178197 228.169239 
L 386.414415 231.010742 
L 388.650632 239.675936 
L 390.88685 243.207934 
L 393.123067 245.671926 
L 395.359285 247.63049 
L 397.595502 247.367739 
L 399.83172 249.465036 
L 402.067937 249.026911 
L 404.304154 249.9154 
L 406.540372 250.031924 
L 408.776589 249.269078 
L 411.012807 248.100128 
L 413.249024 245.719369 
L 415.485242 247.299305 
L 417.721459 247.310972 
L 419.957677 246.204274 
L 422.193894 242.014968 
L 424.430111 234.530874 
L 426.666329 234.7097 
L 428.902546 235.961951 
L 431.138764 236.985615 
L 433.374981 237.153563 
L 435.611199 236.044359 
L 437.847416 235.496231 
L 440.083634 236.358091 
L 442.319851 240.357803 
L 444.556069 240.090713 
L 446.792286 240.232807 
L 449.028503 234.668419 
L 451.264721 227.488133 
L 453.500938 228.433037 
L 455.737156 232.19146 
L 457.973373 238.345098 
L 460.209591 239.177934 
L 462.445808 237.794698 
L 464.682026 236.266614 
L 466.918243 235.323512 
L 469.15446 238.202323 
L 471.390678 238.124882 
L 473.626895 237.760025 
L 475.863113 228.681717 
L 478.09933 213.338057 
L 480.335548 211.573568 
L 482.571765 217.06568 
L 484.807983 217.864386 
L 487.0442 221.177434 
L 489.280418 228.481461 
L 491.516635 230.72728 
L 493.752852 234.263162 
L 495.98907 242.460456 
L 498.225287 245.310534 
L 500.461505 248.452265 
L 502.697722 248.315826 
L 504.93394 246.729835 
L 507.170157 247.459177 
L 509.406375 246.233298 
L 513.87881 243.483491 
L 516.115027 244.220598 
L 518.351244 242.344518 
L 520.587462 240.034911 
L 522.823679 239.076964 
L 525.059897 238.731595 
L 527.296114 238.659989 
L 529.532332 236.728338 
L 531.768549 235.093106 
L 534.004767 236.162722 
L 536.240984 236.575664 
L 540.713419 239.602817 
L 542.949636 238.916048 
L 542.949636 238.916048 
" clip-path="url(#p5c4e79fb7d)" style="fill: none; stroke: #808080; stroke-width: 1.5; stroke-linecap: square"/>
   </g>
   <g id="line2d_24">
    <path d="M 355.10737 262.24 
L 355.10737 32.4 
" clip-path="url(#p5c4e79fb7d)" style="fill: none; stroke-dasharray: 4.44,1.92; stroke-dashoffset: 0; stroke: #0000ff; stroke-width: 1.2"/>
   </g>
   <g id="patch_3">
    <path d="M 75.692 262.24 
L 75.692 32.4 
" style="fill: none; stroke: #000000; stroke-width: 0.8; stroke-linejoin: miter; stroke-linecap: square"/>
   </g>
   <g id="patch_4">
    <path d="M 565.2 262.24 
L 565.2 32.4 
" style="fill: none; stroke: #000000; stroke-width: 0.8; stroke-linejoin: miter; stroke-linecap: square"/>
   </g>
   <g id="patch_5">
    <path d="M 75.692 262.24 
L 565.2 262.24 
" style="fill: none; stroke: #000000; stroke-width: 0.8; stroke-linejoin: miter; stroke-linecap: square"/>
   </g>
   <g id="patch_6">
    <path d="M 75.692 32.4 
L 565.2 32.4 
" style="fill: none; stroke: #000000; stroke-width: 0.8; stroke-linejoin: miter; stroke-linecap: square"/>
   </g>
   <g id="legend_1">
    <g id="patch_7">
     <path d="M 81.292 63.5025 
L 181.9345 63.5025 
Q 183.5345 63.5025 183.5345 61.9025 
L 183.5345 38 
Q 183.5345 36.4 181.9345 36.4 
L 81.292 36.4 
Q 79.692 36.4 79.692 38 
L 79.692 61.9025 
Q 79.692 63.5025 81.292 63.5025 
z
" style="fill: #ffffff; opacity: 0.8; stroke: #cccccc; stroke-linejoin: miter"/>
    </g>
    <g id="line2d_25">
     <path d="M 82.892 44.08 
L 90.892 44.08 
L 98.892 44.08 
" style="fill: none; stroke: #808080; stroke-width: 1.5; stroke-linecap: square"/>
    </g>
    <g id="text_14">
     <!-- Raw $\chi^2$ -->
     <g transform="translate(105.292 46.88) scale(0.08 -0.08)">
      <defs>
       <path id="DejaVuSans-52" d="M 2841 2188 
Q 3044 2119 3236 1894 
Q 3428 1669 3622 1275 
L 4263 0 
L 3584 0 
L 2988 1197 
Q 2756 1666 2539 1819 
Q 2322 1972 1947 1972 
L 1259 1972 
L 1259 0 
L 628 0 
L 628 4666 
L 2053 4666 
Q 2853 4666 3247 4331 
Q 3641 3997 3641 3322 
Q 3641 2881 3436 2590 
Q 3231 2300 2841 2188 
z
M 1259 4147 
L 1259 2491 
L 2053 2491 
Q 2509 2491 2742 2702 
Q 2975 2913 2975 3322 
Q 2975 3731 2742 3939 
Q 2509 4147 2053 4147 
L 1259 4147 
z
" transform="scale(0.015625)"/>
       <path id="DejaVuSans-61" d="M 2194 1759 
Q 1497 1759 1228 1600 
Q 959 1441 959 1056 
Q 959 750 1161 570 
Q 1363 391 1709 391 
Q 2188 391 2477 730 
Q 2766 1069 2766 1631 
L 2766 1759 
L 2194 1759 
z
M 3341 1997 
L 3341 0 
L 2766 0 
L 2766 531 
Q 2569 213 2275 61 
Q 1981 -91 1556 -91 
Q 1019 -91 701 211 
Q 384 513 384 1019 
Q 384 1609 779 1909 
Q 1175 2209 1959 2209 
L 2766 2209 
L 2766 2266 
Q 2766 2663 2505 2880 
Q 2244 3097 1772 3097 
Q 1472 3097 1187 3025 
Q 903 2953 641 2809 
L 641 3341 
Q 956 3463 1253 3523 
Q 1550 3584 1831 3584 
Q 2591 3584 2966 3190 
Q 3341 2797 3341 1997 
z
" transform="scale(0.015625)"/>
       <path id="DejaVuSans-77" d="M 269 3500 
L 844 3500 
L 1563 769 
L 2278 3500 
L 2956 3500 
L 3675 769 
L 4391 3500 
L 4966 3500 
L 4050 0 
L 3372 0 
L 2619 2869 
L 1863 0 
L 1184 0 
L 269 3500 
z
" transform="scale(0.015625)"/>
      </defs>
      <use xlink:href="#DejaVuSans-52" transform="translate(0 0.765625)"/>
      <use xlink:href="#DejaVuSans-61" transform="translate(69.482422 0.765625)"/>
      <use xlink:href="#DejaVuSans-77" transform="translate(130.761719 0.765625)"/>
      <use xlink:href="#DejaVuSans-20" transform="translate(212.548828 0.765625)"/>
      <use xlink:href="#DejaVuSans-Oblique-3c7" transform="translate(244.335938 0.765625)"/>
      <use xlink:href="#DejaVuSans-32" transform="translate(307.988333 39.046875) scale(0.7)"/>
     </g>
    </g>
    <g id="line2d_26">
     <path d="M 82.892 55.83875 
L 90.892 55.83875 
L 98.892 55.83875 
" style="fill: none; stroke-dasharray: 4.44,1.92; stroke-dashoffset: 0; stroke: #0000ff; stroke-width: 1.2"/>
    </g>
    <g id="text_15">
     <!-- Best P = 77727.14 -->
     <g transform="translate(105.292 58.63875) scale(0.08 -0.08)">
      <defs>
       <path id="DejaVuSans-42" d="M 1259 2228 
L 1259 519 
L 2272 519 
Q 2781 519 3026 730 
Q 3272 941 3272 1375 
Q 3272 1813 3026 2020 
Q 2781 2228 2272 2228 
L 1259 2228 
z
M 1259 4147 
L 1259 2741 
L 2194 2741 
Q 2656 2741 2882 2914 
Q 3109 3088 3109 3444 
Q 3109 3797 2882 3972 
Q 2656 4147 2194 4147 
L 1259 4147 
z
M 628 4666 
L 2241 4666 
Q 2963 4666 3353 4366 
Q 3744 4066 3744 3513 
Q 3744 3084 3544 2831 
Q 3344 2578 2956 2516 
Q 3422 2416 3680 2098 
Q 3938 1781 3938 1306 
Q 3938 681 3513 340 
Q 3088 0 2303 0 
L 628 0 
L 628 4666 
z
" transform="scale(0.015625)"/>
       <path id="DejaVuSans-74" d="M 1172 4494 
L 1172 3500 
L 2356 3500 
L 2356 3053 
L 1172 3053 
L 1172 1153 
Q 1172 725 1289 603 
Q 1406 481 1766 481 
L 2356 481 
L 2356 0 
L 1766 0 
Q 1100 0 847 248 
Q 594 497 594 1153 
L 594 3053 
L 172 3053 
L 172 3500 
L 594 3500 
L 594 4494 
L 1172 4494 
z
" transform="scale(0.015625)"/>
       <path id="DejaVuSans-3d" d="M 678 2906 
L 4684 2906 
L 4684 2381 
L 678 2381 
L 678 2906 
z
M 678 1631 
L 4684 1631 
L 4684 1100 
L 678 1100 
L 678 1631 
z
" transform="scale(0.015625)"/>
       <path id="DejaVuSans-2e" d="M 684 794 
L 1344 794 
L 1344 0 
L 684 0 
L 684 794 
z
" transform="scale(0.015625)"/>
      </defs>
      <use xlink:href="#DejaVuSans-42"/>
      <use xlink:href="#DejaVuSans-65" transform="translate(68.603516 0)"/>
      <use xlink:href="#DejaVuSans-73" transform="translate(130.126953 0)"/>
      <use xlink:href="#DejaVuSans-74" transform="translate(182.226562 0)"/>
      <use xlink:href="#DejaVuSans-20" transform="translate(221.435547 0)"/>
      <use xlink:href="#DejaVuSans-50" transform="translate(253.222656 0)"/>
      <use xlink:href="#DejaVuSans-20" transform="translate(313.525391 0)"/>
      <use xlink:href="#DejaVuSans-3d" transform="translate(345.3125 0)"/>
      <use xlink:href="#DejaVuSans-20" transform="translate(429.101562 0)"/>
      <use xlink:href="#DejaVuSans-37" transform="translate(460.888672 0)"/>
      <use xlink:href="#DejaVuSans-37" transform="translate(524.511719 0)"/>
      <use xlink:href="#DejaVuSans-37" transform="translate(588.134766 0)"/>
      <use xlink:href="#DejaVuSans-32" transform="translate(651.757812 0)"/>
      <use xlink:href="#DejaVuSans-37" transform="translate(715.380859 0)"/>
      <use xlink:href="#DejaVuSans-2e" transform="translate(779.003906 0)"/>
      <use xlink:href="#DejaVuSans-31" transform="translate(810.791016 0)"/>
      <use xlink:href="#DejaVuSans-34" transform="translate(874.414062 0)"/>
     </g>
    </g>
   </g>
  </g>
  <g id="axes_2">
   <g id="patch_8">
    <path d="M 75.692 534.04 
L 565.2 534.04 
L 565.2 304.2 
L 75.692 304.2 
z
" style="fill: #ffffff"/>
   </g>
   <g id="matplotlib.axis_3">
    <g id="xtick_6">
     <g id="line2d_27">
      <path d="M 97.942364 534.04 
L 97.942364 304.2 
" clip-path="url(#p08266a139a)" style="fill: none; stroke-dasharray: 2.96,1.28; stroke-dashoffset: 0; stroke: #b0b0b0; stroke-opacity: 0.6; stroke-width: 0.8"/>
     </g>
     <g id="line2d_28">
      <g>
       <use xlink:href="#m9516527570" x="97.942364" y="534.04" style="stroke: #000000; stroke-width: 0.8"/>
      </g>
     </g>
     <g id="text_16">
      <!-- 0.0 -->
      <g transform="translate(89.990801 548.638438) scale(0.1 -0.1)">
       <use xlink:href="#DejaVuSans-30"/>
       <use xlink:href="#DejaVuSans-2e" transform="translate(63.623047 0)"/>
       <use xlink:href="#DejaVuSans-30" transform="translate(95.410156 0)"/>
      </g>
     </g>
    </g>
    <g id="xtick_7">
     <g id="line2d_29">
      <path d="M 187.842823 534.04 
L 187.842823 304.2 
" clip-path="url(#p08266a139a)" style="fill: none; stroke-dasharray: 2.96,1.28; stroke-dashoffset: 0; stroke: #b0b0b0; stroke-opacity: 0.6; stroke-width: 0.8"/>
     </g>
     <g id="line2d_30">
      <g>
       <use xlink:href="#m9516527570" x="187.842823" y="534.04" style="stroke: #000000; stroke-width: 0.8"/>
      </g>
     </g>
     <g id="text_17">
      <!-- 0.2 -->
      <g transform="translate(179.89126 548.638438) scale(0.1 -0.1)">
       <use xlink:href="#DejaVuSans-30"/>
       <use xlink:href="#DejaVuSans-2e" transform="translate(63.623047 0)"/>
       <use xlink:href="#DejaVuSans-32" transform="translate(95.410156 0)"/>
      </g>
     </g>
    </g>
    <g id="xtick_8">
     <g id="line2d_31">
      <path d="M 277.743282 534.04 
L 277.743282 304.2 
" clip-path="url(#p08266a139a)" style="fill: none; stroke-dasharray: 2.96,1.28; stroke-dashoffset: 0; stroke: #b0b0b0; stroke-opacity: 0.6; stroke-width: 0.8"/>
     </g>
     <g id="line2d_32">
      <g>
       <use xlink:href="#m9516527570" x="277.743282" y="534.04" style="stroke: #000000; stroke-width: 0.8"/>
      </g>
     </g>
     <g id="text_18">
      <!-- 0.4 -->
      <g transform="translate(269.791719 548.638438) scale(0.1 -0.1)">
       <use xlink:href="#DejaVuSans-30"/>
       <use xlink:href="#DejaVuSans-2e" transform="translate(63.623047 0)"/>
       <use xlink:href="#DejaVuSans-34" transform="translate(95.410156 0)"/>
      </g>
     </g>
    </g>
    <g id="xtick_9">
     <g id="line2d_33">
      <path d="M 367.643741 534.04 
L 367.643741 304.2 
" clip-path="url(#p08266a139a)" style="fill: none; stroke-dasharray: 2.96,1.28; stroke-dashoffset: 0; stroke: #b0b0b0; stroke-opacity: 0.6; stroke-width: 0.8"/>
     </g>
     <g id="line2d_34">
      <g>
       <use xlink:href="#m9516527570" x="367.643741" y="534.04" style="stroke: #000000; stroke-width: 0.8"/>
      </g>
     </g>
     <g id="text_19">
      <!-- 0.6 -->
      <g transform="translate(359.692179 548.638438) scale(0.1 -0.1)">
       <use xlink:href="#DejaVuSans-30"/>
       <use xlink:href="#DejaVuSans-2e" transform="translate(63.623047 0)"/>
       <use xlink:href="#DejaVuSans-36" transform="translate(95.410156 0)"/>
      </g>
     </g>
    </g>
    <g id="xtick_10">
     <g id="line2d_35">
      <path d="M 457.5442 534.04 
L 457.5442 304.2 
" clip-path="url(#p08266a139a)" style="fill: none; stroke-dasharray: 2.96,1.28; stroke-dashoffset: 0; stroke: #b0b0b0; stroke-opacity: 0.6; stroke-width: 0.8"/>
     </g>
     <g id="line2d_36">
      <g>
       <use xlink:href="#m9516527570" x="457.5442" y="534.04" style="stroke: #000000; stroke-width: 0.8"/>
      </g>
     </g>
     <g id="text_20">
      <!-- 0.8 -->
      <g transform="translate(449.592638 548.638438) scale(0.1 -0.1)">
       <use xlink:href="#DejaVuSans-30"/>
       <use xlink:href="#DejaVuSans-2e" transform="translate(63.623047 0)"/>
       <use xlink:href="#DejaVuSans-38" transform="translate(95.410156 0)"/>
      </g>
     </g>
    </g>
    <g id="xtick_11">
     <g id="line2d_37">
      <path d="M 547.444659 534.04 
L 547.444659 304.2 
" clip-path="url(#p08266a139a)" style="fill: none; stroke-dasharray: 2.96,1.28; stroke-dashoffset: 0; stroke: #b0b0b0; stroke-opacity: 0.6; stroke-width: 0.8"/>
     </g>
     <g id="line2d_38">
      <g>
       <use xlink:href="#m9516527570" x="547.444659" y="534.04" style="stroke: #000000; stroke-width: 0.8"/>
      </g>
     </g>
     <g id="text_21">
      <!-- 1.0 -->
      <g transform="translate(539.493097 548.638438) scale(0.1 -0.1)">
       <use xlink:href="#DejaVuSans-31"/>
       <use xlink:href="#DejaVuSans-2e" transform="translate(63.623047 0)"/>
       <use xlink:href="#DejaVuSans-30" transform="translate(95.410156 0)"/>
      </g>
     </g>
    </g>
    <g id="text_22">
     <!-- Phase -->
     <g transform="translate(305.517094 562.316562) scale(0.1 -0.1)">
      <defs>
       <path id="DejaVuSans-68" d="M 3513 2113 
L 3513 0 
L 2938 0 
L 2938 2094 
Q 2938 2591 2744 2837 
Q 2550 3084 2163 3084 
Q 1697 3084 1428 2787 
Q 1159 2491 1159 1978 
L 1159 0 
L 581 0 
L 581 4863 
L 1159 4863 
L 1159 2956 
Q 1366 3272 1645 3428 
Q 1925 3584 2291 3584 
Q 2894 3584 3203 3211 
Q 3513 2838 3513 2113 
z
" transform="scale(0.015625)"/>
      </defs>
      <use xlink:href="#DejaVuSans-50"/>
      <use xlink:href="#DejaVuSans-68" transform="translate(60.302734 0)"/>
      <use xlink:href="#DejaVuSans-61" transform="translate(123.681641 0)"/>
      <use xlink:href="#DejaVuSans-73" transform="translate(184.960938 0)"/>
      <use xlink:href="#DejaVuSans-65" transform="translate(237.060547 0)"/>
     </g>
    </g>
   </g>
   <g id="matplotlib.axis_4">
    <g id="ytick_7">
     <g id="line2d_39">
      <path d="M 75.692 498.926371 
L 565.2 498.926371 
" clip-path="url(#p08266a139a)" style="fill: none; stroke-dasharray: 2.96,1.28; stroke-dashoffset: 0; stroke: #b0b0b0; stroke-opacity: 0.6; stroke-width: 0.8"/>
     </g>
     <g id="line2d_40">
      <g>
       <use xlink:href="#md020618dd4" x="75.692" y="498.926371" style="stroke: #000000; stroke-width: 0.8"/>
      </g>
     </g>
     <g id="text_23">
      <!-- 0.2 -->
      <g transform="translate(52.788875 502.72559) scale(0.1 -0.1)">
       <use xlink:href="#DejaVuSans-30"/>
       <use xlink:href="#DejaVuSans-2e" transform="translate(63.623047 0)"/>
       <use xlink:href="#DejaVuSans-32" transform="translate(95.410156 0)"/>
      </g>
     </g>
    </g>
    <g id="ytick_8">
     <g id="line2d_41">
      <path d="M 75.692 461.239952 
L 565.2 461.239952 
" clip-path="url(#p08266a139a)" style="fill: none; stroke-dasharray: 2.96,1.28; stroke-dashoffset: 0; stroke: #b0b0b0; stroke-opacity: 0.6; stroke-width: 0.8"/>
     </g>
     <g id="line2d_42">
      <g>
       <use xlink:href="#md020618dd4" x="75.692" y="461.239952" style="stroke: #000000; stroke-width: 0.8"/>
      </g>
     </g>
     <g id="text_24">
      <!-- 0.4 -->
      <g transform="translate(52.788875 465.03917) scale(0.1 -0.1)">
       <use xlink:href="#DejaVuSans-30"/>
       <use xlink:href="#DejaVuSans-2e" transform="translate(63.623047 0)"/>
       <use xlink:href="#DejaVuSans-34" transform="translate(95.410156 0)"/>
      </g>
     </g>
    </g>
    <g id="ytick_9">
     <g id="line2d_43">
      <path d="M 75.692 423.553532 
L 565.2 423.553532 
" clip-path="url(#p08266a139a)" style="fill: none; stroke-dasharray: 2.96,1.28; stroke-dashoffset: 0; stroke: #b0b0b0; stroke-opacity: 0.6; stroke-width: 0.8"/>
     </g>
     <g id="line2d_44">
      <g>
       <use xlink:href="#md020618dd4" x="75.692" y="423.553532" style="stroke: #000000; stroke-width: 0.8"/>
      </g>
     </g>
     <g id="text_25">
      <!-- 0.6 -->
      <g transform="translate(52.788875 427.352751) scale(0.1 -0.1)">
       <use xlink:href="#DejaVuSans-30"/>
       <use xlink:href="#DejaVuSans-2e" transform="translate(63.623047 0)"/>
       <use xlink:href="#DejaVuSans-36" transform="translate(95.410156 0)"/>
      </g>
     </g>
    </g>
    <g id="ytick_10">
     <g id="line2d_45">
      <path d="M 75.692 385.867112 
L 565.2 385.867112 
" clip-path="url(#p08266a139a)" style="fill: none; stroke-dasharray: 2.96,1.28; stroke-dashoffset: 0; stroke: #b0b0b0; stroke-opacity: 0.6; stroke-width: 0.8"/>
     </g>
     <g id="line2d_46">
      <g>
       <use xlink:href="#md020618dd4" x="75.692" y="385.867112" style="stroke: #000000; stroke-width: 0.8"/>
      </g>
     </g>
     <g id="text_26">
      <!-- 0.8 -->
      <g transform="translate(52.788875 389.666331) scale(0.1 -0.1)">
       <use xlink:href="#DejaVuSans-30"/>
       <use xlink:href="#DejaVuSans-2e" transform="translate(63.623047 0)"/>
       <use xlink:href="#DejaVuSans-38" transform="translate(95.410156 0)"/>
      </g>
     </g>
    </g>
    <g id="ytick_11">
     <g id="line2d_47">
      <path d="M 75.692 348.180693 
L 565.2 348.180693 
" clip-path="url(#p08266a139a)" style="fill: none; stroke-dasharray: 2.96,1.28; stroke-dashoffset: 0; stroke: #b0b0b0; stroke-opacity: 0.6; stroke-width: 0.8"/>
     </g>
     <g id="line2d_48">
      <g>
       <use xlink:href="#md020618dd4" x="75.692" y="348.180693" style="stroke: #000000; stroke-width: 0.8"/>
      </g>
     </g>
     <g id="text_27">
      <!-- 1.0 -->
      <g transform="translate(52.788875 351.979912) scale(0.1 -0.1)">
       <use xlink:href="#DejaVuSans-31"/>
       <use xlink:href="#DejaVuSans-2e" transform="translate(63.623047 0)"/>
       <use xlink:href="#DejaVuSans-30" transform="translate(95.410156 0)"/>
      </g>
     </g>
    </g>
    <g id="ytick_12">
     <g id="line2d_49">
      <path d="M 75.692 310.494273 
L 565.2 310.494273 
" clip-path="url(#p08266a139a)" style="fill: none; stroke-dasharray: 2.96,1.28; stroke-dashoffset: 0; stroke: #b0b0b0; stroke-opacity: 0.6; stroke-width: 0.8"/>
     </g>
     <g id="line2d_50">
      <g>
       <use xlink:href="#md020618dd4" x="75.692" y="310.494273" style="stroke: #000000; stroke-width: 0.8"/>
      </g>
     </g>
     <g id="text_28">
      <!-- 1.2 -->
      <g transform="translate(52.788875 314.293492) scale(0.1 -0.1)">
       <use xlink:href="#DejaVuSans-31"/>
       <use xlink:href="#DejaVuSans-2e" transform="translate(63.623047 0)"/>
       <use xlink:href="#DejaVuSans-32" transform="translate(95.410156 0)"/>
      </g>
     </g>
    </g>
    <g id="text_29">
     <!-- Median Normalized Counts -->
     <g transform="translate(24.437312 486.293437) rotate(-90) scale(0.1 -0.1)">
      <defs>
       <path id="DejaVuSans-4d" d="M 628 4666 
L 1569 4666 
L 2759 1491 
L 3956 4666 
L 4897 4666 
L 4897 0 
L 4281 0 
L 4281 4097 
L 3078 897 
L 2444 897 
L 1241 4097 
L 1241 0 
L 628 0 
L 628 4666 
z
" transform="scale(0.015625)"/>
       <path id="DejaVuSans-6e" d="M 3513 2113 
L 3513 0 
L 2938 0 
L 2938 2094 
Q 2938 2591 2744 2837 
Q 2550 3084 2163 3084 
Q 1697 3084 1428 2787 
Q 1159 2491 1159 1978 
L 1159 0 
L 581 0 
L 581 3500 
L 1159 3500 
L 1159 2956 
Q 1366 3272 1645 3428 
Q 1925 3584 2291 3584 
Q 2894 3584 3203 3211 
Q 3513 2838 3513 2113 
z
" transform="scale(0.015625)"/>
       <path id="DejaVuSans-4e" d="M 628 4666 
L 1478 4666 
L 3547 763 
L 3547 4666 
L 4159 4666 
L 4159 0 
L 3309 0 
L 1241 3903 
L 1241 0 
L 628 0 
L 628 4666 
z
" transform="scale(0.015625)"/>
       <path id="DejaVuSans-6d" d="M 3328 2828 
Q 3544 3216 3844 3400 
Q 4144 3584 4550 3584 
Q 5097 3584 5394 3201 
Q 5691 2819 5691 2113 
L 5691 0 
L 5113 0 
L 5113 2094 
Q 5113 2597 4934 2840 
Q 4756 3084 4391 3084 
Q 3944 3084 3684 2787 
Q 3425 2491 3425 1978 
L 3425 0 
L 2847 0 
L 2847 2094 
Q 2847 2600 2669 2842 
Q 2491 3084 2119 3084 
Q 1678 3084 1418 2786 
Q 1159 2488 1159 1978 
L 1159 0 
L 581 0 
L 581 3500 
L 1159 3500 
L 1159 2956 
Q 1356 3278 1631 3431 
Q 1906 3584 2284 3584 
Q 2666 3584 2933 3390 
Q 3200 3197 3328 2828 
z
" transform="scale(0.015625)"/>
       <path id="DejaVuSans-6c" d="M 603 4863 
L 1178 4863 
L 1178 0 
L 603 0 
L 603 4863 
z
" transform="scale(0.015625)"/>
       <path id="DejaVuSans-7a" d="M 353 3500 
L 3084 3500 
L 3084 2975 
L 922 459 
L 3084 459 
L 3084 0 
L 275 0 
L 275 525 
L 2438 3041 
L 353 3041 
L 353 3500 
z
" transform="scale(0.015625)"/>
       <path id="DejaVuSans-43" d="M 4122 4306 
L 4122 3641 
Q 3803 3938 3442 4084 
Q 3081 4231 2675 4231 
Q 1875 4231 1450 3742 
Q 1025 3253 1025 2328 
Q 1025 1406 1450 917 
Q 1875 428 2675 428 
Q 3081 428 3442 575 
Q 3803 722 4122 1019 
L 4122 359 
Q 3791 134 3420 21 
Q 3050 -91 2638 -91 
Q 1578 -91 968 557 
Q 359 1206 359 2328 
Q 359 3453 968 4101 
Q 1578 4750 2638 4750 
Q 3056 4750 3426 4639 
Q 3797 4528 4122 4306 
z
" transform="scale(0.015625)"/>
       <path id="DejaVuSans-75" d="M 544 1381 
L 544 3500 
L 1119 3500 
L 1119 1403 
Q 1119 906 1312 657 
Q 1506 409 1894 409 
Q 2359 409 2629 706 
Q 2900 1003 2900 1516 
L 2900 3500 
L 3475 3500 
L 3475 0 
L 2900 0 
L 2900 538 
Q 2691 219 2414 64 
Q 2138 -91 1772 -91 
Q 1169 -91 856 284 
Q 544 659 544 1381 
z
M 1991 3584 
L 1991 3584 
z
" transform="scale(0.015625)"/>
      </defs>
      <use xlink:href="#DejaVuSans-4d"/>
      <use xlink:href="#DejaVuSans-65" transform="translate(86.279297 0)"/>
      <use xlink:href="#DejaVuSans-64" transform="translate(147.802734 0)"/>
      <use xlink:href="#DejaVuSans-69" transform="translate(211.279297 0)"/>
      <use xlink:href="#DejaVuSans-61" transform="translate(239.0625 0)"/>
      <use xlink:href="#DejaVuSans-6e" transform="translate(300.341797 0)"/>
      <use xlink:href="#DejaVuSans-20" transform="translate(363.720703 0)"/>
      <use xlink:href="#DejaVuSans-4e" transform="translate(395.507812 0)"/>
      <use xlink:href="#DejaVuSans-6f" transform="translate(470.3125 0)"/>
      <use xlink:href="#DejaVuSans-72" transform="translate(531.494141 0)"/>
      <use xlink:href="#DejaVuSans-6d" transform="translate(570.857422 0)"/>
      <use xlink:href="#DejaVuSans-61" transform="translate(668.269531 0)"/>
      <use xlink:href="#DejaVuSans-6c" transform="translate(729.548828 0)"/>
      <use xlink:href="#DejaVuSans-69" transform="translate(757.332031 0)"/>
      <use xlink:href="#DejaVuSans-7a" transform="translate(785.115234 0)"/>
      <use xlink:href="#DejaVuSans-65" transform="translate(837.605469 0)"/>
      <use xlink:href="#DejaVuSans-64" transform="translate(899.128906 0)"/>
      <use xlink:href="#DejaVuSans-20" transform="translate(962.605469 0)"/>
      <use xlink:href="#DejaVuSans-43" transform="translate(994.392578 0)"/>
      <use xlink:href="#DejaVuSans-6f" transform="translate(1064.216797 0)"/>
      <use xlink:href="#DejaVuSans-75" transform="translate(1125.398438 0)"/>
      <use xlink:href="#DejaVuSans-6e" transform="translate(1188.777344 0)"/>
      <use xlink:href="#DejaVuSans-74" transform="translate(1252.15625 0)"/>
      <use xlink:href="#DejaVuSans-73" transform="translate(1291.365234 0)"/>
     </g>
    </g>
   </g>
   <g id="line2d_51">
    <path d="M 97.942364 347.845172 
L 102.437387 347.845172 
L 102.437387 346.64289 
L 106.93241 346.64289 
L 106.93241 344.713647 
L 111.427433 344.713647 
L 111.427433 327.313175 
L 115.922455 327.313175 
L 115.922455 326.539614 
L 120.417478 326.539614 
L 120.417478 327.816456 
L 124.912501 327.816456 
L 124.912501 337.099193 
L 129.407524 337.099193 
L 129.407524 337.574514 
L 133.902547 337.574514 
L 133.902547 338.441275 
L 138.39757 338.441275 
L 138.39757 338.124395 
L 142.892593 338.124395 
L 142.892593 328.030817 
L 147.387616 328.030817 
L 147.387616 327.341135 
L 160.872685 327.350455 
L 160.872685 321.590685 
L 165.367708 321.590685 
L 165.367708 314.647273 
L 169.862731 314.647273 
L 169.862731 316.995917 
L 174.357754 316.995917 
L 174.357754 318.85992 
L 178.852777 318.85992 
L 178.852777 327.033575 
L 183.3478 327.033575 
L 183.3478 327.425016 
L 187.842823 327.425016 
L 187.842823 326.371854 
L 192.337846 326.371854 
L 192.337846 320.220643 
L 196.832869 320.220643 
L 196.832869 318.65488 
L 201.327892 318.65488 
L 201.327892 316.371476 
L 205.822915 316.371476 
L 205.822915 326.698054 
L 210.317938 326.698054 
L 210.317938 319.111561 
L 214.812961 319.111561 
L 214.812961 322.289686 
L 219.307983 322.289686 
L 219.307983 325.719453 
L 223.803006 325.719453 
L 223.803006 335.56139 
L 228.298029 335.56139 
L 228.298029 336.474752 
L 232.793052 336.474752 
L 232.793052 336.279032 
L 237.288075 336.279032 
L 237.288075 337.779554 
L 241.783098 337.779554 
L 241.783098 330.808182 
L 246.278121 330.808182 
L 246.278121 338.413315 
L 250.773144 338.413315 
L 250.773144 347.341891 
L 255.268167 347.341891 
L 255.268167 346.260769 
L 259.76319 346.260769 
L 259.76319 347.407131 
L 264.258213 347.407131 
L 264.258213 345.384688 
L 268.753236 345.384688 
L 268.753236 336.512032 
L 273.248259 336.512032 
L 273.248259 335.59867 
L 277.743282 335.59867 
L 277.743282 339.242797 
L 282.238305 339.242797 
L 282.238305 339.559677 
L 286.733328 339.559677 
L 286.733328 341.926962 
L 291.228351 341.926962 
L 291.228351 345.067807 
L 295.723374 345.067807 
L 295.723374 350.249737 
L 300.218397 350.249737 
L 300.218397 351.200378 
L 304.71342 351.200378 
L 304.71342 366.140365 
L 309.208443 366.140365 
L 309.208443 462.304297 
L 313.703466 462.304297 
L 313.703466 516.891635 
L 318.198489 516.891635 
L 318.198489 523.592727 
L 322.693511 523.592727 
L 322.693511 521.020403 
L 327.188534 521.020403 
L 327.188534 455.304965 
L 331.683557 455.304965 
L 331.683557 364.602562 
L 336.17858 364.602562 
L 336.17858 346.69881 
L 340.673603 346.69881 
L 340.673603 343.623205 
L 345.168626 343.623205 
L 345.168626 339.941798 
L 349.663649 339.941798 
L 349.663649 348.376413 
L 354.158672 348.376413 
L 354.158672 350.128576 
L 358.653695 350.128576 
L 358.653695 355.701946 
L 363.148718 355.701946 
L 363.148718 358.870752 
L 367.643741 358.870752 
L 367.643741 353.959103 
L 372.138764 353.959103 
L 372.138764 346.51241 
L 376.633787 346.51241 
L 376.633787 346.931811 
L 381.12881 346.931811 
L 381.12881 362.393718 
L 385.623833 362.393718 
L 385.623833 365.711644 
L 390.118856 365.711644 
L 390.118856 369.16937 
L 394.613879 369.16937 
L 394.613879 357.88283 
L 399.108902 357.88283 
L 399.108902 363.11136 
L 403.603925 363.11136 
L 403.603925 368.144169 
L 408.098948 368.144169 
L 408.098948 369.281211 
L 412.593971 369.281211 
L 412.593971 367.221487 
L 417.088994 367.221487 
L 417.088994 374.42586 
L 421.584017 374.42586 
L 421.584017 380.521151 
L 426.079039 380.521151 
L 426.079039 375.357862 
L 430.574062 375.357862 
L 430.574062 376.150063 
L 435.069085 376.150063 
L 435.069085 377.715826 
L 439.564108 377.715826 
L 439.564108 381.210832 
L 444.059131 381.210832 
L 444.059131 386.150441 
L 448.554154 386.150441 
L 448.554154 382.413114 
L 453.049177 382.413114 
L 453.049177 378.666467 
L 457.5442 378.666467 
L 457.5442 377.287105 
L 462.039223 377.287105 
L 462.039223 380.791431 
L 466.534246 380.791431 
L 466.534246 378.153867 
L 471.029269 378.153867 
L 471.029269 376.196663 
L 475.524292 376.196663 
L 475.524292 369.495571 
L 480.019315 369.495571 
L 480.019315 363.16728 
L 484.514338 363.16728 
L 484.514338 369.13209 
L 489.009361 369.13209 
L 489.009361 381.406552 
L 493.504384 381.406552 
L 493.504384 376.457624 
L 497.999407 376.457624 
L 497.999407 370.958814 
L 502.49443 370.958814 
L 502.49443 367.118967 
L 506.989453 367.118967 
L 506.989453 356.503468 
L 511.484476 356.503468 
L 511.484476 356.102707 
L 515.979499 356.102707 
L 515.979499 347.984972 
L 520.474522 347.984972 
L 520.474522 366.699566 
L 524.969545 366.699566 
L 524.969545 366.336085 
L 529.464567 366.336085 
L 529.464567 368.339889 
L 533.95959 368.339889 
L 533.95959 366.196285 
L 538.454613 366.196285 
L 538.454613 357.89215 
L 542.949636 357.89215 
L 542.949636 357.92011 
" clip-path="url(#p08266a139a)" style="fill: none; stroke: #000080; stroke-width: 1.3; stroke-linecap: square"/>
   </g>
   <g id="patch_9">
    <path d="M 75.692 534.04 
L 75.692 304.2 
" style="fill: none; stroke: #000000; stroke-width: 0.8; stroke-linejoin: miter; stroke-linecap: square"/>
   </g>
   <g id="patch_10">
    <path d="M 565.2 534.04 
L 565.2 304.2 
" style="fill: none; stroke: #000000; stroke-width: 0.8; stroke-linejoin: miter; stroke-linecap: square"/>
   </g>
   <g id="patch_11">
    <path d="M 75.692 534.04 
L 565.2 534.04 
" style="fill: none; stroke: #000000; stroke-width: 0.8; stroke-linejoin: miter; stroke-linecap: square"/>
   </g>
   <g id="patch_12">
    <path d="M 75.692 304.2 
L 565.2 304.2 
" style="fill: none; stroke: #000000; stroke-width: 0.8; stroke-linejoin: miter; stroke-linecap: square"/>
   </g>
  </g>
  <g id="text_30">
   <!-- Second Run -->
   <g transform="translate(252.50625 26.398125) scale(0.12 -0.12)">
    <defs>
     <path id="DejaVuSans-53" d="M 3425 4513 
L 3425 3897 
Q 3066 4069 2747 4153 
Q 2428 4238 2131 4238 
Q 1616 4238 1336 4038 
Q 1056 3838 1056 3469 
Q 1056 3159 1242 3001 
Q 1428 2844 1947 2747 
L 2328 2669 
Q 3034 2534 3370 2195 
Q 3706 1856 3706 1288 
Q 3706 609 3251 259 
Q 2797 -91 1919 -91 
Q 1588 -91 1214 -16 
Q 841 59 441 206 
L 441 856 
Q 825 641 1194 531 
Q 1563 422 1919 422 
Q 2459 422 2753 634 
Q 3047 847 3047 1241 
Q 3047 1584 2836 1778 
Q 2625 1972 2144 2069 
L 1759 2144 
Q 1053 2284 737 2584 
Q 422 2884 422 3419 
Q 422 4038 858 4394 
Q 1294 4750 2059 4750 
Q 2388 4750 2728 4690 
Q 3069 4631 3425 4513 
z
" transform="scale(0.015625)"/>
     <path id="DejaVuSans-63" d="M 3122 3366 
L 3122 2828 
Q 2878 2963 2633 3030 
Q 2388 3097 2138 3097 
Q 1578 3097 1268 2742 
Q 959 2388 959 1747 
Q 959 1106 1268 751 
Q 1578 397 2138 397 
Q 2388 397 2633 464 
Q 2878 531 3122 666 
L 3122 134 
Q 2881 22 2623 -34 
Q 2366 -91 2075 -91 
Q 1284 -91 818 406 
Q 353 903 353 1747 
Q 353 2603 823 3093 
Q 1294 3584 2113 3584 
Q 2378 3584 2631 3529 
Q 2884 3475 3122 3366 
z
" transform="scale(0.015625)"/>
    </defs>
    <use xlink:href="#DejaVuSans-53"/>
    <use xlink:href="#DejaVuSans-65" transform="translate(63.476562 0)"/>
    <use xlink:href="#DejaVuSans-63" transform="translate(125 0)"/>
    <use xlink:href="#DejaVuSans-6f" transform="translate(179.980469 0)"/>
    <use xlink:href="#DejaVuSans-6e" transform="translate(241.162109 0)"/>
    <use xlink:href="#DejaVuSans-64" transform="translate(304.541016 0)"/>
    <use xlink:href="#DejaVuSans-20" transform="translate(368.017578 0)"/>
    <use xlink:href="#DejaVuSans-52" transform="translate(399.804688 0)"/>
    <use xlink:href="#DejaVuSans-75" transform="translate(464.787109 0)"/>
    <use xlink:href="#DejaVuSans-6e" transform="translate(528.166016 0)"/>
   </g>
  </g>
 </g>
 <defs>
  <clipPath id="p5c4e79fb7d">
   <rect x="75.692" y="32.4" width="489.508" height="229.84"/>
  </clipPath>
  <clipPath id="p08266a139a">
   <rect x="75.692" y="304.2" width="489.508" height="229.84"/>
  </clipPath>
 </defs>
</svg>
